<svg width="679" height="182" viewBox="0 0 679 182" fill="none" xmlns="http://www.w3.org/2000/svg">
<path d="M167.926 161.877H161.467V168.335H167.926V161.877Z" fill="#9CE9FE"/>
<path d="M167.926 155.418H161.467V161.877H167.926V155.418Z" fill="#CAF1FC"/>
<path d="M167.926 148.959H161.467V155.418H167.926V148.959Z" fill="white"/>
<path d="M161.469 168.336H155.01V174.795H161.469V168.336Z" fill="#5FDBFD"/>
<path d="M161.469 161.877H155.01V168.335H161.469V161.877Z" fill="#9CE9FE"/>
<path d="M161.469 155.418H155.01V161.877H161.469V155.418Z" fill="#CAF1FC"/>
<path d="M161.469 148.959H155.01V155.418H161.469V148.959Z" fill="#CAF1FC"/>
<path d="M161.469 142.501H155.01V148.96H161.469V142.501Z" fill="white"/>
<path d="M161.469 136.042H155.01V142.5H161.469V136.042Z" fill="white"/>
<path d="M155.012 168.336H148.553V174.795H155.012V168.336Z" fill="#5FDBFD"/>
<path d="M155.012 161.877H148.553V168.335H155.012V161.877Z" fill="#9CE9FE"/>
<path d="M155.012 155.418H148.553V161.877H155.012V155.418Z" fill="#9CE9FE"/>
<path d="M155.012 148.959H148.553V155.418H155.012V148.959Z" fill="#CAF1FC"/>
<path d="M155.012 142.501H148.553V148.96H155.012V142.501Z" fill="#CAF1FC"/>
<path d="M155.012 136.042H148.553V142.5H155.012V136.042Z" fill="white"/>
<path d="M155.012 129.583H148.553V136.042H155.012V129.583Z" fill="white"/>
<path d="M148.55 168.336H142.091V174.795H148.55V168.336Z" fill="#5FDBFD"/>
<path d="M148.55 161.877H142.091V168.335H148.55V161.877Z" fill="#5FDBFD"/>
<path d="M148.55 155.418H142.091V161.877H148.55V155.418Z" fill="#9CE9FE"/>
<path d="M148.55 148.959H142.091V155.418H148.55V148.959Z" fill="#9CE9FE"/>
<path d="M148.55 142.501H142.091V148.96H148.55V142.501Z" fill="#CAF1FC"/>
<path d="M148.55 136.042H142.091V142.5H148.55V136.042Z" fill="#CAF1FC"/>
<path d="M148.55 129.583H142.091V136.042H148.55V129.583Z" fill="white"/>
<path d="M142.093 174.794H135.634V181.253H142.093V174.794Z" fill="#9CE9FE"/>
<path d="M142.093 168.336H135.634V174.795H142.093V168.336Z" fill="#CAF1FC"/>
<path d="M142.093 161.877H135.634V168.335H142.093V161.877Z" fill="white"/>
<path d="M142.093 155.418H135.634V161.877H142.093V155.418Z" fill="white"/>
<path d="M142.093 148.959H135.634V155.418H142.093V148.959Z" fill="#9CE9FE"/>
<path d="M142.093 142.501H135.634V148.96H142.093V142.501Z" fill="#9CE9FE"/>
<path d="M142.093 136.042H135.634V142.5H142.093V136.042Z" fill="#CAF1FC"/>
<path d="M142.093 129.583H135.634V136.042H142.093V129.583Z" fill="white"/>
<path d="M135.631 174.794H129.172V181.253H135.631V174.794Z" fill="#9CE9FE"/>
<path d="M135.631 168.336H129.172V174.795H135.631V168.336Z" fill="#CAF1FC"/>
<path d="M135.631 161.877H129.172V168.335H135.631V161.877Z" fill="#CAF1FC"/>
<path d="M135.631 155.418H129.172V161.877H135.631V155.418Z" fill="#CAF1FC"/>
<path d="M135.631 148.959H129.172V155.418H135.631V148.959Z" fill="white"/>
<path d="M135.631 142.501H129.172V148.96H135.631V142.501Z" fill="white"/>
<path d="M135.631 136.042H129.172V142.5H135.631V136.042Z" fill="#CAF1FC"/>
<path d="M129.174 174.794H122.716V181.253H129.174V174.794Z" fill="#9CE9FE"/>
<path d="M129.174 168.336H122.716V174.795H129.174V168.336Z" fill="#9CE9FE"/>
<path d="M129.174 161.877H122.716V168.335H129.174V161.877Z" fill="#CAF1FC"/>
<path d="M129.174 155.418H122.716V161.877H129.174V155.418Z" fill="#CAF1FC"/>
<path d="M129.174 148.959H122.716V155.418H129.174V148.959Z" fill="#CAF1FC"/>
<path d="M129.174 142.501H122.716V148.96H129.174V142.501Z" fill="white"/>
<path d="M129.174 136.042H122.716V142.5H129.174V136.042Z" fill="white"/>
<path d="M129.174 129.583H122.716V136.042H129.174V129.583Z" fill="white"/>
<path d="M122.717 174.794H116.259V181.253H122.717V174.794Z" fill="#5FDBFD"/>
<path d="M122.717 168.336H116.259V174.795H122.717V168.336Z" fill="#9CE9FE"/>
<path d="M122.717 161.877H116.259V168.335H122.717V161.877Z" fill="#9CE9FE"/>
<path d="M122.717 155.418H116.259V161.877H122.717V155.418Z" fill="#CAF1FC"/>
<path d="M122.717 148.959H116.259V155.418H122.717V148.959Z" fill="#CAF1FC"/>
<path d="M122.717 142.501H116.259V148.96H122.717V142.501Z" fill="#CAF1FC"/>
<path d="M122.717 136.042H116.259V142.5H122.717V136.042Z" fill="white"/>
<path d="M122.717 129.583H116.259V136.042H122.717V129.583Z" fill="white"/>
<path d="M122.717 123.124H116.259V129.583H122.717V123.124Z" fill="white"/>
<path d="M116.256 174.794H109.797V181.253H116.256V174.794Z" fill="#5FDBFD"/>
<path d="M116.256 168.336H109.797V174.795H116.256V168.336Z" fill="#9CE9FE"/>
<path d="M116.256 161.877H109.797V168.335H116.256V161.877Z" fill="#9CE9FE"/>
<path d="M116.256 155.418H109.797V161.877H116.256V155.418Z" fill="#9CE9FE"/>
<path d="M116.256 148.959H109.797V155.418H116.256V148.959Z" fill="#9CE9FE"/>
<path d="M116.256 142.501H109.797V148.96H116.256V142.501Z" fill="#CAF1FC"/>
<path d="M116.256 136.042H109.797V142.5H116.256V136.042Z" fill="#CAF1FC"/>
<path d="M116.256 129.583H109.797V136.042H116.256V129.583Z" fill="white"/>
<path d="M116.256 123.124H109.797V129.583H116.256V123.124Z" fill="white"/>
<path d="M116.256 116.666H109.797V123.125H116.256V116.666Z" fill="white"/>
<path d="M109.799 174.794H103.34V181.253H109.799V174.794Z" fill="#5FDBFD"/>
<path d="M109.799 168.336H103.34V174.795H109.799V168.336Z" fill="#9CE9FE"/>
<path d="M109.799 161.877H103.34V168.335H109.799V161.877Z" fill="#9CE9FE"/>
<path d="M109.799 155.418H103.34V161.877H109.799V155.418Z" fill="#9CE9FE"/>
<path d="M109.799 148.959H103.34V155.418H109.799V148.959Z" fill="#9CE9FE"/>
<path d="M109.799 142.501H103.34V148.96H109.799V142.501Z" fill="#9CE9FE"/>
<path d="M109.799 136.042H103.34V142.5H109.799V136.042Z" fill="#CAF1FC"/>
<path d="M109.799 129.583H103.34V136.042H109.799V129.583Z" fill="#CAF1FC"/>
<path d="M109.799 123.124H103.34V129.583H109.799V123.124Z" fill="white"/>
<path d="M109.799 116.666H103.34V123.125H109.799V116.666Z" fill="white"/>
<path d="M103.342 174.794H96.8829V181.253H103.342V174.794Z" fill="#5FDBFD"/>
<path d="M103.342 168.336H96.8829V174.795H103.342V168.336Z" fill="#5FDBFD"/>
<path d="M103.342 161.877H96.8829V168.335H103.342V161.877Z" fill="#9CE9FE"/>
<path d="M103.342 155.418H96.8829V161.877H103.342V155.418Z" fill="#9CE9FE"/>
<path d="M103.342 148.959H96.8829V155.418H103.342V148.959Z" fill="#9CE9FE"/>
<path d="M103.342 142.501H96.8829V148.96H103.342V142.501Z" fill="#9CE9FE"/>
<path d="M103.342 136.042H96.8829V142.5H103.342V136.042Z" fill="#CAF1FC"/>
<path d="M103.342 129.583H96.8829V136.042H103.342V129.583Z" fill="#CAF1FC"/>
<path d="M103.342 123.124H96.8829V129.583H103.342V123.124Z" fill="#CAF1FC"/>
<path d="M103.342 116.666H96.8829V123.125H103.342V116.666Z" fill="white"/>
<path d="M96.88 174.794H90.4213V181.253H96.88V174.794Z" fill="#5FDBFD"/>
<path d="M96.88 168.336H90.4213V174.795H96.88V168.336Z" fill="#5FDBFD"/>
<path d="M96.88 161.877H90.4213V168.335H96.88V161.877Z" fill="#5FDBFD"/>
<path d="M96.88 155.418H90.4213V161.877H96.88V155.418Z" fill="#9CE9FE"/>
<path d="M96.88 148.959H90.4213V155.418H96.88V148.959Z" fill="#9CE9FE"/>
<path d="M96.88 142.501H90.4213V148.96H96.88V142.501Z" fill="#9CE9FE"/>
<path d="M96.88 136.042H90.4213V142.5H96.88V136.042Z" fill="#9CE9FE"/>
<path d="M96.88 129.583H90.4213V136.042H96.88V129.583Z" fill="#CAF1FC"/>
<path d="M96.88 123.124H90.4213V129.583H96.88V123.124Z" fill="#CAF1FC"/>
<path d="M96.88 116.666H90.4213V123.125H96.88V116.666Z" fill="white"/>
<path d="M90.423 174.794H83.9642V181.253H90.423V174.794Z" fill="#5FDBFD"/>
<path d="M90.423 168.336H83.9642V174.795H90.423V168.336Z" fill="#5FDBFD"/>
<path d="M90.423 161.877H83.9642V168.335H90.423V161.877Z" fill="#5FDBFD"/>
<path d="M90.423 155.418H83.9642V161.877H90.423V155.418Z" fill="#5FDBFD"/>
<path d="M90.423 148.959H83.9642V155.418H90.423V148.959Z" fill="#9CE9FE"/>
<path d="M90.423 142.501H83.9642V148.96H90.423V142.501Z" fill="#9CE9FE"/>
<path d="M90.423 136.042H83.9642V142.5H90.423V136.042Z" fill="#9CE9FE"/>
<path d="M90.423 129.583H83.9642V136.042H90.423V129.583Z" fill="#CAF1FC"/>
<path d="M90.423 123.124H83.9642V129.583H90.423V123.124Z" fill="#CAF1FC"/>
<path d="M90.423 116.666H83.9642V123.125H90.423V116.666Z" fill="white"/>
<path d="M83.9613 168.336H77.5026V174.795H83.9613V168.336Z" fill="#5FDBFD"/>
<path d="M83.9613 161.877H77.5026V168.335H83.9613V161.877Z" fill="#5FDBFD"/>
<path d="M83.9613 155.418H77.5026V161.877H83.9613V155.418Z" fill="#5FDBFD"/>
<path d="M83.9613 148.959H77.5026V155.418H83.9613V148.959Z" fill="#5FDBFD"/>
<path d="M83.9613 142.501H77.5026V148.96H83.9613V142.501Z" fill="#9CE9FE"/>
<path d="M83.9613 136.042H77.5026V142.5H83.9613V136.042Z" fill="#9CE9FE"/>
<path d="M83.9613 129.583H77.5026V136.042H83.9613V129.583Z" fill="#CAF1FC"/>
<path d="M83.9613 123.124H77.5026V129.583H83.9613V123.124Z" fill="white"/>
<path d="M83.9613 116.666H77.5026V123.125H83.9613V116.666Z" fill="white"/>
<path d="M77.5044 168.336H71.0457V174.795H77.5044V168.336Z" fill="#5FDBFD"/>
<path d="M77.5044 161.877H71.0457V168.335H77.5044V161.877Z" fill="#5FDBFD"/>
<path d="M77.5044 155.418H71.0457V161.877H77.5044V155.418Z" fill="#5FDBFD"/>
<path d="M77.5044 148.959H71.0457V155.418H77.5044V148.959Z" fill="#5FDBFD"/>
<path d="M77.5044 142.501H71.0457V148.96H77.5044V142.501Z" fill="#9CE9FE"/>
<path d="M77.5044 136.042H71.0457V142.5H77.5044V136.042Z" fill="#CAF1FC"/>
<path d="M77.5044 129.583H71.0457V136.042H77.5044V129.583Z" fill="#CAF1FC"/>
<path d="M77.5044 123.124H71.0457V129.583H77.5044V123.124Z" fill="white"/>
<path d="M71.0473 168.336H64.5886V174.795H71.0473V168.336Z" fill="#5FDBFD"/>
<path d="M71.0473 161.877H64.5886V168.335H71.0473V161.877Z" fill="#5FDBFD"/>
<path d="M71.0473 155.418H64.5886V161.877H71.0473V155.418Z" fill="#5FDBFD"/>
<path d="M71.0473 148.959H64.5886V155.418H71.0473V148.959Z" fill="#9CE9FE"/>
<path d="M71.0473 142.501H64.5886V148.96H71.0473V142.501Z" fill="#CAF1FC"/>
<path d="M71.0473 136.042H64.5886V142.5H71.0473V136.042Z" fill="#CAF1FC"/>
<path d="M71.0473 129.583H64.5886V136.042H71.0473V129.583Z" fill="white"/>
<path d="M64.5857 168.336H58.127V174.795H64.5857V168.336Z" fill="#CAF1FC"/>
<path d="M64.5857 161.877H58.127V168.335H64.5857V161.877Z" fill="#5FDBFD"/>
<path d="M64.5857 155.418H58.127V161.877H64.5857V155.418Z" fill="#9CE9FE"/>
<path d="M64.5857 148.959H58.127V155.418H64.5857V148.959Z" fill="#9CE9FE"/>
<path d="M64.5857 142.501H58.127V148.96H64.5857V142.501Z" fill="#CAF1FC"/>
<path d="M64.5857 136.042H58.127V142.5H64.5857V136.042Z" fill="white"/>
<path d="M58.1286 174.794H51.6699V181.253H58.1286V174.794Z" fill="#9CE9FE"/>
<path d="M58.1286 168.336H51.6699V174.795H58.1286V168.336Z" fill="#CAF1FC"/>
<path d="M58.1286 161.877H51.6699V168.335H58.1286V161.877Z" fill="#CAF1FC"/>
<path d="M58.1286 155.418H51.6699V161.877H58.1286V155.418Z" fill="#CAF1FC"/>
<path d="M58.1286 148.959H51.6699V155.418H58.1286V148.959Z" fill="#CAF1FC"/>
<path d="M58.1286 142.501H51.6699V148.96H58.1286V142.501Z" fill="#9CE9FE"/>
<path d="M51.6717 174.794H45.213V181.253H51.6717V174.794Z" fill="#9CE9FE"/>
<path d="M51.6717 168.336H45.213V174.795H51.6717V168.336Z" fill="#9CE9FE"/>
<path d="M51.6717 161.877H45.213V168.335H51.6717V161.877Z" fill="#CAF1FC"/>
<path d="M51.6717 155.418H45.213V161.877H51.6717V155.418Z" fill="#CAF1FC"/>
<path d="M51.6717 148.959H45.213V155.418H51.6717V148.959Z" fill="white"/>
<path d="M51.6717 142.501H45.213V148.96H51.6717V142.501Z" fill="white"/>
<path d="M51.6717 136.042H45.213V142.5H51.6717V136.042Z" fill="white"/>
<path d="M45.2099 174.794H38.7512V181.253H45.2099V174.794Z" fill="#5FDBFD"/>
<path d="M45.2099 168.336H38.7512V174.795H45.2099V168.336Z" fill="#9CE9FE"/>
<path d="M45.2099 161.877H38.7512V168.335H45.2099V161.877Z" fill="#CAF1FC"/>
<path d="M45.2099 155.418H38.7512V161.877H45.2099V155.418Z" fill="#CAF1FC"/>
<path d="M45.2099 148.959H38.7512V155.418H45.2099V148.959Z" fill="#CAF1FC"/>
<path d="M45.2099 142.501H38.7512V148.96H45.2099V142.501Z" fill="white"/>
<path d="M45.2099 136.042H38.7512V142.5H45.2099V136.042Z" fill="white"/>
<path d="M38.753 174.794H32.2943V181.253H38.753V174.794Z" fill="#5FDBFD"/>
<path d="M38.753 168.336H32.2943V174.795H38.753V168.336Z" fill="#9CE9FE"/>
<path d="M38.753 161.877H32.2943V168.335H38.753V161.877Z" fill="#9CE9FE"/>
<path d="M38.753 155.418H32.2943V161.877H38.753V155.418Z" fill="#CAF1FC"/>
<path d="M38.753 148.959H32.2943V155.418H38.753V148.959Z" fill="#CAF1FC"/>
<path d="M38.753 142.501H32.2943V148.96H38.753V142.501Z" fill="#CAF1FC"/>
<path d="M38.753 136.042H32.2943V142.5H38.753V136.042Z" fill="white"/>
<path d="M38.753 129.583H32.2943V136.042H38.753V129.583Z" fill="white"/>
<path d="M32.2914 174.794H25.8326V181.253H32.2914V174.794Z" fill="#5FDBFD"/>
<path d="M32.2914 168.336H25.8326V174.795H32.2914V168.336Z" fill="#9CE9FE"/>
<path d="M32.2914 161.877H25.8326V168.335H32.2914V161.877Z" fill="#9CE9FE"/>
<path d="M32.2914 155.418H25.8326V161.877H32.2914V155.418Z" fill="#9CE9FE"/>
<path d="M32.2914 148.959H25.8326V155.418H32.2914V148.959Z" fill="#CAF1FC"/>
<path d="M32.2914 142.501H25.8326V148.96H32.2914V142.501Z" fill="#CAF1FC"/>
<path d="M32.2914 136.042H25.8326V142.5H32.2914V136.042Z" fill="#CAF1FC"/>
<path d="M32.2914 129.583H25.8326V136.042H32.2914V129.583Z" fill="white"/>
<path d="M25.8343 174.794H19.3756V181.253H25.8343V174.794Z" fill="#5FDBFD"/>
<path d="M25.8343 168.336H19.3756V174.795H25.8343V168.336Z" fill="#5FDBFD"/>
<path d="M25.8343 161.877H19.3756V168.335H25.8343V161.877Z" fill="#9CE9FE"/>
<path d="M25.8343 155.418H19.3756V161.877H25.8343V155.418Z" fill="#9CE9FE"/>
<path d="M25.8343 148.959H19.3756V155.418H25.8343V148.959Z" fill="#9CE9FE"/>
<path d="M25.8343 142.501H19.3756V148.96H25.8343V142.501Z" fill="#CAF1FC"/>
<path d="M25.8343 136.042H19.3756V142.5H25.8343V136.042Z" fill="#CAF1FC"/>
<path d="M25.8343 129.583H19.3756V136.042H25.8343V129.583Z" fill="white"/>
<path d="M19.3774 168.336H12.9187V174.795H19.3774V168.336Z" fill="#5FDBFD"/>
<path d="M19.3774 161.877H12.9187V168.335H19.3774V161.877Z" fill="#5FDBFD"/>
<path d="M19.3774 155.418H12.9187V161.877H19.3774V155.418Z" fill="#9CE9FE"/>
<path d="M19.3774 148.959H12.9187V155.418H19.3774V148.959Z" fill="#CAF1FC"/>
<path d="M19.3774 142.501H12.9187V148.96H19.3774V142.501Z" fill="#CAF1FC"/>
<path d="M19.3774 136.042H12.9187V142.5H19.3774V136.042Z" fill="white"/>
<path d="M12.9156 168.336H6.45691V174.795H12.9156V168.336Z" fill="#5FDBFD"/>
<path d="M12.9156 161.877H6.45691V168.335H12.9156V161.877Z" fill="#9CE9FE"/>
<path d="M12.9156 155.418H6.45691V161.877H12.9156V155.418Z" fill="#CAF1FC"/>
<path d="M12.9156 148.959H6.45691V155.418H12.9156V148.959Z" fill="white"/>
<path d="M12.9156 142.501H6.45691V148.96H12.9156V142.501Z" fill="white"/>
<path d="M6.45872 155.418H0V161.877H6.45872V155.418Z" fill="#CAF1FC"/>
<path d="M6.45872 148.959H0V155.418H6.45872V148.959Z" fill="white"/>
<path d="M678.704 94.6666H668.185V105.185H678.704V94.6666Z" fill="white"/>
<path d="M678.704 84.1481H668.185V94.6667H678.704V84.1481Z" fill="white"/>
<path d="M678.704 73.6296H668.185V84.1482H678.704V73.6296Z" fill="white"/>
<path d="M678.704 63.1111H668.185V73.6296H678.704V63.1111Z" fill="white"/>
<path d="M668.185 105.185H657.667V115.704H668.185V105.185Z" fill="white"/>
<path d="M668.185 94.6666H657.667V105.185H668.185V94.6666Z" fill="#CAF1FC"/>
<path d="M668.185 84.1481H657.667V94.6667H668.185V84.1481Z" fill="#CAF1FC"/>
<path d="M668.185 73.6296H657.667V84.1482H668.185V73.6296Z" fill="#CAF1FC"/>
<path d="M668.185 63.1111H657.667V73.6296H668.185V63.1111Z" fill="white"/>
<path d="M668.185 52.5926H657.667V63.1111H668.185V52.5926Z" fill="white"/>
<path d="M657.667 105.185H647.148V115.704H657.667V105.185Z" fill="#CAF1FC"/>
<path d="M657.667 94.6666H647.148V105.185H657.667V94.6666Z" fill="#9CE9FE"/>
<path d="M657.667 84.1481H647.148V94.6667H657.667V84.1481Z" fill="#CAF1FC"/>
<path d="M657.667 73.6296H647.148V84.1482H657.667V73.6296Z" fill="#CAF1FC"/>
<path d="M657.667 63.1111H647.148V73.6296H657.667V63.1111Z" fill="#CAF1FC"/>
<path d="M657.667 52.5926H647.148V63.1111H657.667V52.5926Z" fill="white"/>
<path d="M657.667 42.0741H647.148V52.5926H657.667V42.0741Z" fill="white"/>
<path d="M647.148 105.185H636.63V115.704H647.148V105.185Z" fill="#CAF1FC"/>
<path d="M647.148 94.6666H636.63V105.185H647.148V94.6666Z" fill="white"/>
<path d="M647.148 84.1481H636.63V94.6667H647.148V84.1481Z" fill="#9CE9FE"/>
<path d="M647.148 73.6296H636.63V84.1482H647.148V73.6296Z" fill="#9CE9FE"/>
<path d="M647.148 63.1111H636.63V73.6296H647.148V63.1111Z" fill="#CAF1FC"/>
<path d="M647.148 52.5926H636.63V63.1111H647.148V52.5926Z" fill="white"/>
<path d="M647.148 42.0741H636.63V52.5926H647.148V42.0741Z" fill="white"/>
<path d="M636.63 115.704H626.111V126.222H636.63V115.704Z" fill="#9CE9FE"/>
<path d="M636.63 105.185H626.111V115.704H636.63V105.185Z" fill="#CAF1FC"/>
<path d="M636.63 94.6666H626.111V105.185H636.63V94.6666Z" fill="white"/>
<path d="M636.63 84.1481H626.111V94.6667H636.63V84.1481Z" fill="white"/>
<path d="M636.63 73.6296H626.111V84.1482H636.63V73.6296Z" fill="white"/>
<path d="M636.63 63.1111H626.111V73.6296H636.63V63.1111Z" fill="#CAF1FC"/>
<path d="M636.63 52.5926H626.111V63.1111H636.63V52.5926Z" fill="#CAF1FC"/>
<path d="M636.63 42.0741H626.111V52.5926H636.63V42.0741Z" fill="white"/>
<path d="M626.111 126.222H615.593V136.741H626.111V126.222Z" fill="#5FDBFD"/>
<path d="M626.111 115.704H615.593V126.222H626.111V115.704Z" fill="#9CE9FE"/>
<path d="M626.111 105.185H615.593V115.704H626.111V105.185Z" fill="#CAF1FC"/>
<path d="M626.111 94.6666H615.593V105.185H626.111V94.6666Z" fill="#CAF1FC"/>
<path d="M626.111 84.1481H615.593V94.6667H626.111V84.1481Z" fill="white"/>
<path d="M626.111 73.6296H615.593V84.1482H626.111V73.6296Z" fill="white"/>
<path d="M626.111 63.1111H615.593V73.6296H626.111V63.1111Z" fill="white"/>
<path d="M626.111 52.5926H615.593V63.1111H626.111V52.5926Z" fill="#CAF1FC"/>
<path d="M626.111 42.0741H615.593V52.5926H626.111V42.0741Z" fill="white"/>
<path d="M615.593 126.222H605.074V136.741H615.593V126.222Z" fill="#5FDBFD"/>
<path d="M615.593 115.704H605.074V126.222H615.593V115.704Z" fill="#9CE9FE"/>
<path d="M615.593 105.185H605.074V115.704H615.593V105.185Z" fill="#9CE9FE"/>
<path d="M615.593 94.6666H605.074V105.185H615.593V94.6666Z" fill="#CAF1FC"/>
<path d="M615.593 84.1481H605.074V94.6667H615.593V84.1481Z" fill="#CAF1FC"/>
<path d="M615.593 73.6296H605.074V84.1482H615.593V73.6296Z" fill="#CAF1FC"/>
<path d="M615.593 63.1111H605.074V73.6296H615.593V63.1111Z" fill="white"/>
<path d="M615.593 52.5926H605.074V63.1111H615.593V52.5926Z" fill="white"/>
<path d="M615.593 42.0741H605.074V52.5926H615.593V42.0741Z" fill="white"/>
<path d="M605.074 126.222H594.556V136.741H605.074V126.222Z" fill="#5FDBFD"/>
<path d="M605.074 115.704H594.556V126.222H605.074V115.704Z" fill="#5FDBFD"/>
<path d="M605.074 105.185H594.556V115.704H605.074V105.185Z" fill="#9CE9FE"/>
<path d="M605.074 94.6666H594.556V105.185H605.074V94.6666Z" fill="#9CE9FE"/>
<path d="M605.074 84.1481H594.556V94.6667H605.074V84.1481Z" fill="#CAF1FC"/>
<path d="M605.074 73.6296H594.556V84.1482H605.074V73.6296Z" fill="#CAF1FC"/>
<path d="M605.074 63.1111H594.556V73.6296H605.074V63.1111Z" fill="white"/>
<path d="M605.074 52.5926H594.556V63.1111H605.074V52.5926Z" fill="white"/>
<path d="M605.074 42.0741H594.556V52.5926H605.074V42.0741Z" fill="white"/>
<path d="M594.556 126.222H584.037V136.741H594.556V126.222Z" fill="#5FDBFD"/>
<path d="M594.556 115.704H584.037V126.222H594.556V115.704Z" fill="#5FDBFD"/>
<path d="M594.556 105.185H584.037V115.704H594.556V105.185Z" fill="#9CE9FE"/>
<path d="M594.556 94.6666H584.037V105.185H594.556V94.6666Z" fill="#9CE9FE"/>
<path d="M594.556 84.1481H584.037V94.6667H594.556V84.1481Z" fill="#9CE9FE"/>
<path d="M594.556 73.6296H584.037V84.1482H594.556V73.6296Z" fill="#CAF1FC"/>
<path d="M594.556 63.1111H584.037V73.6296H594.556V63.1111Z" fill="#CAF1FC"/>
<path d="M594.556 52.5926H584.037V63.1111H594.556V52.5926Z" fill="white"/>
<path d="M594.556 42.0741H584.037V52.5926H594.556V42.0741Z" fill="white"/>
<path d="M594.556 31.5555H584.037V42.0741H594.556V31.5555Z" fill="white"/>
<path d="M584.037 126.222H573.519V136.741H584.037V126.222Z" fill="#5FDBFD"/>
<path d="M584.037 115.704H573.519V126.222H584.037V115.704Z" fill="#5FDBFD"/>
<path d="M584.037 105.185H573.519V115.704H584.037V105.185Z" fill="#5FDBFD"/>
<path d="M584.037 94.6666H573.519V105.185H584.037V94.6666Z" fill="#9CE9FE"/>
<path d="M584.037 84.1481H573.519V94.6667H584.037V84.1481Z" fill="#9CE9FE"/>
<path d="M584.037 73.6296H573.519V84.1482H584.037V73.6296Z" fill="#CAF1FC"/>
<path d="M584.037 63.1111H573.519V73.6296H584.037V63.1111Z" fill="#CAF1FC"/>
<path d="M584.037 52.5926H573.519V63.1111H584.037V52.5926Z" fill="white"/>
<path d="M584.037 42.0741H573.519V52.5926H584.037V42.0741Z" fill="white"/>
<path d="M584.037 31.5555H573.519V42.0741H584.037V31.5555Z" fill="white"/>
<path d="M584.037 21.037H573.519V31.5556H584.037V21.037Z" fill="white"/>
<path d="M573.519 126.222H563V136.741H573.519V126.222Z" fill="#5FDBFD"/>
<path d="M573.519 115.704H563V126.222H573.519V115.704Z" fill="#5FDBFD"/>
<path d="M573.519 105.185H563V115.704H573.519V105.185Z" fill="#5FDBFD"/>
<path d="M573.519 94.6666H563V105.185H573.519V94.6666Z" fill="#9CE9FE"/>
<path d="M573.519 84.1481H563V94.6667H573.519V84.1481Z" fill="#9CE9FE"/>
<path d="M573.519 73.6296H563V84.1482H573.519V73.6296Z" fill="#9CE9FE"/>
<path d="M573.519 63.1111H563V73.6296H573.519V63.1111Z" fill="#CAF1FC"/>
<path d="M573.519 52.5926H563V63.1111H573.519V52.5926Z" fill="#CAF1FC"/>
<path d="M573.519 42.0741H563V52.5926H573.519V42.0741Z" fill="white"/>
<path d="M573.519 31.5555H563V42.0741H573.519V31.5555Z" fill="white"/>
<path d="M573.519 21.037H563V31.5556H573.519V21.037Z" fill="white"/>
<path d="M563 126.222H552.482V136.741H563V126.222Z" fill="#5FDBFD"/>
<path d="M563 115.704H552.482V126.222H563V115.704Z" fill="#5FDBFD"/>
<path d="M563 105.185H552.482V115.704H563V105.185Z" fill="#5FDBFD"/>
<path d="M563 94.6666H552.482V105.185H563V94.6666Z" fill="#5FDBFD"/>
<path d="M563 84.1481H552.482V94.6667H563V84.1481Z" fill="#9CE9FE"/>
<path d="M563 73.6296H552.482V84.1482H563V73.6296Z" fill="#9CE9FE"/>
<path d="M563 63.1111H552.482V73.6296H563V63.1111Z" fill="#CAF1FC"/>
<path d="M563 52.5926H552.482V63.1111H563V52.5926Z" fill="#CAF1FC"/>
<path d="M563 42.0741H552.482V52.5926H563V42.0741Z" fill="white"/>
<path d="M563 31.5555H552.482V42.0741H563V31.5555Z" fill="white"/>
<path d="M563 21.037H552.482V31.5556H563V21.037Z" fill="white"/>
<path d="M563 10.5185H552.482V21.037H563V10.5185Z" fill="white"/>
<path d="M552.482 126.222H541.963V136.741H552.482V126.222Z" fill="#5FDBFD"/>
<path d="M552.482 115.704H541.963V126.222H552.482V115.704Z" fill="#5FDBFD"/>
<path d="M552.482 105.185H541.963V115.704H552.482V105.185Z" fill="#5FDBFD"/>
<path d="M552.482 94.6666H541.963V105.185H552.482V94.6666Z" fill="#5FDBFD"/>
<path d="M552.482 84.1481H541.963V94.6667H552.482V84.1481Z" fill="#9CE9FE"/>
<path d="M552.482 73.6296H541.963V84.1482H552.482V73.6296Z" fill="#9CE9FE"/>
<path d="M552.482 63.1111H541.963V73.6296H552.482V63.1111Z" fill="#CAF1FC"/>
<path d="M552.482 52.5926H541.963V63.1111H552.482V52.5926Z" fill="#CAF1FC"/>
<path d="M552.482 42.0741H541.963V52.5926H552.482V42.0741Z" fill="white"/>
<path d="M552.482 31.5555H541.963V42.0741H552.482V31.5555Z" fill="#CAF1FC"/>
<path d="M552.482 21.037H541.963V31.5556H552.482V21.037Z" fill="white"/>
<path d="M552.482 10.5185H541.963V21.037H552.482V10.5185Z" fill="white"/>
<path d="M541.963 115.704H531.444V126.222H541.963V115.704Z" fill="#5FDBFD"/>
<path d="M541.963 105.185H531.444V115.704H541.963V105.185Z" fill="#5FDBFD"/>
<path d="M541.963 94.6666H531.444V105.185H541.963V94.6666Z" fill="#9CE9FE"/>
<path d="M541.963 84.1481H531.444V94.6667H541.963V84.1481Z" fill="#9CE9FE"/>
<path d="M541.963 73.6296H531.444V84.1482H541.963V73.6296Z" fill="#CAF1FC"/>
<path d="M541.963 63.1111H531.444V73.6296H541.963V63.1111Z" fill="#CAF1FC"/>
<path d="M541.963 52.5926H531.444V63.1111H541.963V52.5926Z" fill="white"/>
<path d="M541.963 42.0741H531.444V52.5926H541.963V42.0741Z" fill="#CAF1FC"/>
<path d="M541.963 31.5555H531.444V42.0741H541.963V31.5555Z" fill="#CAF1FC"/>
<path d="M541.963 21.037H531.444V31.5556H541.963V21.037Z" fill="white"/>
<path d="M541.963 10.5185H531.444V21.037H541.963V10.5185Z" fill="white"/>
<path d="M531.444 115.704H520.926V126.222H531.444V115.704Z" fill="#5FDBFD"/>
<path d="M531.444 105.185H520.926V115.704H531.444V105.185Z" fill="#5FDBFD"/>
<path d="M531.444 94.6666H520.926V105.185H531.444V94.6666Z" fill="#9CE9FE"/>
<path d="M531.444 84.1481H520.926V94.6667H531.444V84.1481Z" fill="#9CE9FE"/>
<path d="M531.444 73.6296H520.926V84.1482H531.444V73.6296Z" fill="#CAF1FC"/>
<path d="M531.444 63.1111H520.926V73.6296H531.444V63.1111Z" fill="white"/>
<path d="M531.444 52.5926H520.926V63.1111H531.444V52.5926Z" fill="#CAF1FC"/>
<path d="M531.444 42.0741H520.926V52.5926H531.444V42.0741Z" fill="#CAF1FC"/>
<path d="M531.444 31.5555H520.926V42.0741H531.444V31.5555Z" fill="#CAF1FC"/>
<path d="M531.444 21.037H520.926V31.5556H531.444V21.037Z" fill="#CAF1FC"/>
<path d="M531.444 10.5185H520.926V21.037H531.444V10.5185Z" fill="white"/>
<path d="M531.444 0H520.926V10.5185H531.444V0Z" fill="white"/>
<path d="M520.926 115.704H510.407V126.222H520.926V115.704Z" fill="#5FDBFD"/>
<path d="M520.926 105.185H510.407V115.704H520.926V105.185Z" fill="#9CE9FE"/>
<path d="M520.926 94.6666H510.407V105.185H520.926V94.6666Z" fill="#9CE9FE"/>
<path d="M520.926 84.1481H510.407V94.6667H520.926V84.1481Z" fill="#CAF1FC"/>
<path d="M520.926 73.6296H510.407V84.1482H520.926V73.6296Z" fill="#CAF1FC"/>
<path d="M520.926 63.1111H510.407V73.6296H520.926V63.1111Z" fill="#CAF1FC"/>
<path d="M520.926 52.5926H510.407V63.1111H520.926V52.5926Z" fill="#9CE9FE"/>
<path d="M520.926 42.0741H510.407V52.5926H520.926V42.0741Z" fill="#CAF1FC"/>
<path d="M520.926 31.5555H510.407V42.0741H520.926V31.5555Z" fill="#CAF1FC"/>
<path d="M520.926 21.037H510.407V31.5556H520.926V21.037Z" fill="#CAF1FC"/>
<path d="M520.926 10.5185H510.407V21.037H520.926V10.5185Z" fill="white"/>
<path d="M520.926 0H510.407V10.5185H520.926V0Z" fill="white"/>
<path d="M510.407 115.704H499.889V126.222H510.407V115.704Z" fill="#9CE9FE"/>
<path d="M510.407 105.185H499.889V115.704H510.407V105.185Z" fill="#9CE9FE"/>
<path d="M510.407 94.6666H499.889V105.185H510.407V94.6666Z" fill="#CAF1FC"/>
<path d="M510.407 84.1481H499.889V94.6667H510.407V84.1481Z" fill="white"/>
<path d="M510.407 73.6296H499.889V84.1482H510.407V73.6296Z" fill="#CAF1FC"/>
<path d="M510.407 63.1111H499.889V73.6296H510.407V63.1111Z" fill="#9CE9FE"/>
<path d="M510.407 52.5926H499.889V63.1111H510.407V52.5926Z" fill="#9CE9FE"/>
<path d="M510.407 42.0741H499.889V52.5926H510.407V42.0741Z" fill="#CAF1FC"/>
<path d="M510.407 31.5555H499.889V42.0741H510.407V31.5555Z" fill="#CAF1FC"/>
<path d="M510.407 21.037H499.889V31.5556H510.407V21.037Z" fill="#CAF1FC"/>
<path d="M510.407 10.5185H499.889V21.037H510.407V10.5185Z" fill="white"/>
<path d="M510.407 0H499.889V10.5185H510.407V0Z" fill="white"/>
<path d="M499.889 126.222H489.37V136.741H499.889V126.222Z" fill="#9CE9FE"/>
<path d="M499.889 115.704H489.37V126.222H499.889V115.704Z" fill="#9CE9FE"/>
<path d="M499.889 105.185H489.37V115.704H499.889V105.185Z" fill="#CAF1FC"/>
<path d="M499.889 94.6666H489.37V105.185H499.889V94.6666Z" fill="#CAF1FC"/>
<path d="M499.889 84.1481H489.37V94.6667H499.889V84.1481Z" fill="white"/>
<path d="M499.889 73.6296H489.37V84.1482H499.889V73.6296Z" fill="white"/>
<path d="M499.889 63.1111H489.37V73.6296H499.889V63.1111Z" fill="white"/>
<path d="M499.889 52.5926H489.37V63.1111H499.889V52.5926Z" fill="#9CE9FE"/>
<path d="M499.889 42.0741H489.37V52.5926H499.889V42.0741Z" fill="#9CE9FE"/>
<path d="M499.889 31.5555H489.37V42.0741H499.889V31.5555Z" fill="#CAF1FC"/>
<path d="M499.889 21.037H489.37V31.5556H499.889V21.037Z" fill="#CAF1FC"/>
<path d="M499.889 10.5185H489.37V21.037H499.889V10.5185Z" fill="#CAF1FC"/>
<path d="M499.889 0H489.37V10.5185H499.889V0Z" fill="white"/>
<path d="M489.37 126.222H478.852V136.741H489.37V126.222Z" fill="#5FDBFD"/>
<path d="M489.37 115.704H478.852V126.222H489.37V115.704Z" fill="#9CE9FE"/>
<path d="M489.37 105.185H478.852V115.704H489.37V105.185Z" fill="#9CE9FE"/>
<path d="M489.37 94.6666H478.852V105.185H489.37V94.6666Z" fill="#CAF1FC"/>
<path d="M489.37 84.1481H478.852V94.6667H489.37V84.1481Z" fill="#CAF1FC"/>
<path d="M489.37 73.6296H478.852V84.1482H489.37V73.6296Z" fill="white"/>
<path d="M489.37 63.1111H478.852V73.6296H489.37V63.1111Z" fill="white"/>
<path d="M489.37 52.5926H478.852V63.1111H489.37V52.5926Z" fill="white"/>
<path d="M489.37 42.0741H478.852V52.5926H489.37V42.0741Z" fill="#9CE9FE"/>
<path d="M489.37 31.5555H478.852V42.0741H489.37V31.5555Z" fill="#CAF1FC"/>
<path d="M489.37 21.037H478.852V31.5556H489.37V21.037Z" fill="#CAF1FC"/>
<path d="M489.37 10.5185H478.852V21.037H489.37V10.5185Z" fill="#CAF1FC"/>
<path d="M489.37 0H478.852V10.5185H489.37V0Z" fill="white"/>
<path d="M478.852 126.222H468.333V136.741H478.852V126.222Z" fill="#5FDBFD"/>
<path d="M478.852 115.704H468.333V126.222H478.852V115.704Z" fill="#9CE9FE"/>
<path d="M478.852 105.185H468.333V115.704H478.852V105.185Z" fill="#9CE9FE"/>
<path d="M478.852 94.6666H468.333V105.185H478.852V94.6666Z" fill="#CAF1FC"/>
<path d="M478.852 84.1481H468.333V94.6667H478.852V84.1481Z" fill="#CAF1FC"/>
<path d="M478.852 73.6296H468.333V84.1482H478.852V73.6296Z" fill="#CAF1FC"/>
<path d="M478.852 63.1111H468.333V73.6296H478.852V63.1111Z" fill="white"/>
<path d="M478.852 52.5926H468.333V63.1111H478.852V52.5926Z" fill="white"/>
<path d="M478.852 42.0741H468.333V52.5926H478.852V42.0741Z" fill="white"/>
<path d="M478.852 31.5555H468.333V42.0741H478.852V31.5555Z" fill="#CAF1FC"/>
<path d="M478.852 21.037H468.333V31.5556H478.852V21.037Z" fill="#CAF1FC"/>
<path d="M478.852 10.5185H468.333V21.037H478.852V10.5185Z" fill="white"/>
<path d="M478.852 0H468.333V10.5185H478.852V0Z" fill="white"/>
<path d="M468.333 126.222H457.815V136.741H468.333V126.222Z" fill="#5FDBFD"/>
<path d="M468.333 115.704H457.815V126.222H468.333V115.704Z" fill="#5FDBFD"/>
<path d="M468.333 105.185H457.815V115.704H468.333V105.185Z" fill="#9CE9FE"/>
<path d="M468.333 94.6666H457.815V105.185H468.333V94.6666Z" fill="#9CE9FE"/>
<path d="M468.333 84.1481H457.815V94.6667H468.333V84.1481Z" fill="#CAF1FC"/>
<path d="M468.333 73.6296H457.815V84.1482H468.333V73.6296Z" fill="#CAF1FC"/>
<path d="M468.333 63.1111H457.815V73.6296H468.333V63.1111Z" fill="#CAF1FC"/>
<path d="M468.333 52.5926H457.815V63.1111H468.333V52.5926Z" fill="white"/>
<path d="M468.333 42.0741H457.815V52.5926H468.333V42.0741Z" fill="white"/>
<path d="M468.333 31.5555H457.815V42.0741H468.333V31.5555Z" fill="#CAF1FC"/>
<path d="M468.333 21.037H457.815V31.5556H468.333V21.037Z" fill="white"/>
<path d="M468.333 10.5185H457.815V21.037H468.333V10.5185Z" fill="white"/>
<path d="M457.815 126.222H447.296V136.741H457.815V126.222Z" fill="#5FDBFD"/>
<path d="M457.815 115.704H447.296V126.222H457.815V115.704Z" fill="#5FDBFD"/>
<path d="M457.815 105.185H447.296V115.704H457.815V105.185Z" fill="#5FDBFD"/>
<path d="M457.815 94.6666H447.296V105.185H457.815V94.6666Z" fill="#9CE9FE"/>
<path d="M457.815 84.1481H447.296V94.6667H457.815V84.1481Z" fill="#9CE9FE"/>
<path d="M457.815 73.6296H447.296V84.1482H457.815V73.6296Z" fill="#CAF1FC"/>
<path d="M457.815 63.1111H447.296V73.6296H457.815V63.1111Z" fill="#CAF1FC"/>
<path d="M457.815 52.5926H447.296V63.1111H457.815V52.5926Z" fill="#CAF1FC"/>
<path d="M457.815 42.0741H447.296V52.5926H457.815V42.0741Z" fill="white"/>
<path d="M457.815 31.5555H447.296V42.0741H457.815V31.5555Z" fill="white"/>
<path d="M457.815 21.037H447.296V31.5556H457.815V21.037Z" fill="white"/>
<path d="M447.296 126.222H436.778V136.741H447.296V126.222Z" fill="#5FDBFD"/>
<path d="M447.296 115.704H436.778V126.222H447.296V115.704Z" fill="#5FDBFD"/>
<path d="M447.296 105.185H436.778V115.704H447.296V105.185Z" fill="#5FDBFD"/>
<path d="M447.296 94.6666H436.778V105.185H447.296V94.6666Z" fill="#5FDBFD"/>
<path d="M447.296 84.1481H436.778V94.6667H447.296V84.1481Z" fill="#9CE9FE"/>
<path d="M447.296 73.6296H436.778V84.1482H447.296V73.6296Z" fill="#9CE9FE"/>
<path d="M447.296 63.1111H436.778V73.6296H447.296V63.1111Z" fill="#CAF1FC"/>
<path d="M447.296 52.5926H436.778V63.1111H447.296V52.5926Z" fill="#CAF1FC"/>
<path d="M447.296 42.0741H436.778V52.5926H447.296V42.0741Z" fill="white"/>
<path d="M447.296 31.5555H436.778V42.0741H447.296V31.5555Z" fill="white"/>
<path d="M436.778 126.222H426.259V136.741H436.778V126.222Z" fill="#5FDBFD"/>
<path d="M436.778 115.704H426.259V126.222H436.778V115.704Z" fill="#5FDBFD"/>
<path d="M436.778 105.185H426.259V115.704H436.778V105.185Z" fill="#5FDBFD"/>
<path d="M436.778 94.6666H426.259V105.185H436.778V94.6666Z" fill="#5FDBFD"/>
<path d="M436.778 84.1481H426.259V94.6667H436.778V84.1481Z" fill="#9CE9FE"/>
<path d="M436.778 73.6296H426.259V84.1482H436.778V73.6296Z" fill="#9CE9FE"/>
<path d="M436.778 63.1111H426.259V73.6296H436.778V63.1111Z" fill="#CAF1FC"/>
<path d="M436.778 52.5926H426.259V63.1111H436.778V52.5926Z" fill="#CAF1FC"/>
<path d="M436.778 42.0741H426.259V52.5926H436.778V42.0741Z" fill="white"/>
<path d="M436.778 31.5555H426.259V42.0741H436.778V31.5555Z" fill="white"/>
<path d="M436.778 21.037H426.259V31.5556H436.778V21.037Z" fill="white"/>
<path d="M426.259 126.222H415.741V136.741H426.259V126.222Z" fill="#5FDBFD"/>
<path d="M426.259 115.704H415.741V126.222H426.259V115.704Z" fill="#5FDBFD"/>
<path d="M426.259 105.185H415.741V115.704H426.259V105.185Z" fill="#5FDBFD"/>
<path d="M426.259 94.6666H415.741V105.185H426.259V94.6666Z" fill="#5FDBFD"/>
<path d="M426.259 84.1481H415.741V94.6667H426.259V84.1481Z" fill="#9CE9FE"/>
<path d="M426.259 73.6296H415.741V84.1482H426.259V73.6296Z" fill="#9CE9FE"/>
<path d="M426.259 63.1111H415.741V73.6296H426.259V63.1111Z" fill="#CAF1FC"/>
<path d="M426.259 52.5926H415.741V63.1111H426.259V52.5926Z" fill="#CAF1FC"/>
<path d="M426.259 42.0741H415.741V52.5926H426.259V42.0741Z" fill="white"/>
<path d="M426.259 31.5555H415.741V42.0741H426.259V31.5555Z" fill="#CAF1FC"/>
<path d="M426.259 21.037H415.741V31.5556H426.259V21.037Z" fill="white"/>
<path d="M426.259 10.5185H415.741V21.037H426.259V10.5185Z" fill="white"/>
<path d="M415.741 126.222H405.222V136.741H415.741V126.222Z" fill="#5FDBFD"/>
<path d="M415.741 115.704H405.222V126.222H415.741V115.704Z" fill="#5FDBFD"/>
<path d="M415.741 105.185H405.222V115.704H415.741V105.185Z" fill="#5FDBFD"/>
<path d="M415.741 94.6666H405.222V105.185H415.741V94.6666Z" fill="#5FDBFD"/>
<path d="M415.741 84.1481H405.222V94.6667H415.741V84.1481Z" fill="#9CE9FE"/>
<path d="M415.741 73.6296H405.222V84.1482H415.741V73.6296Z" fill="#9CE9FE"/>
<path d="M415.741 63.1111H405.222V73.6296H415.741V63.1111Z" fill="#CAF1FC"/>
<path d="M415.741 52.5926H405.222V63.1111H415.741V52.5926Z" fill="#CAF1FC"/>
<path d="M415.741 42.0741H405.222V52.5926H415.741V42.0741Z" fill="white"/>
<path d="M415.741 31.5555H405.222V42.0741H415.741V31.5555Z" fill="#CAF1FC"/>
<path d="M415.741 21.037H405.222V31.5556H415.741V21.037Z" fill="#CAF1FC"/>
<path d="M415.741 10.5185H405.222V21.037H415.741V10.5185Z" fill="white"/>
<path d="M405.222 126.222H394.704V136.741H405.222V126.222Z" fill="#5FDBFD"/>
<path d="M405.222 115.704H394.704V126.222H405.222V115.704Z" fill="#5FDBFD"/>
<path d="M405.222 105.185H394.704V115.704H405.222V105.185Z" fill="#5FDBFD"/>
<path d="M405.222 94.6666H394.704V105.185H405.222V94.6666Z" fill="#5FDBFD"/>
<path d="M405.222 84.1481H394.704V94.6667H405.222V84.1481Z" fill="#9CE9FE"/>
<path d="M405.222 73.6296H394.704V84.1482H405.222V73.6296Z" fill="#9CE9FE"/>
<path d="M405.222 63.1111H394.704V73.6296H405.222V63.1111Z" fill="#CAF1FC"/>
<path d="M405.222 52.5926H394.704V63.1111H405.222V52.5926Z" fill="white"/>
<path d="M405.222 42.0741H394.704V52.5926H405.222V42.0741Z" fill="#CAF1FC"/>
<path d="M405.222 31.5555H394.704V42.0741H405.222V31.5555Z" fill="#CAF1FC"/>
<path d="M405.222 21.037H394.704V31.5556H405.222V21.037Z" fill="#CAF1FC"/>
<path d="M405.222 10.5185H394.704V21.037H405.222V10.5185Z" fill="white"/>
<path d="M394.704 126.222H384.185V136.741H394.704V126.222Z" fill="#5FDBFD"/>
<path d="M394.704 115.704H384.185V126.222H394.704V115.704Z" fill="#5FDBFD"/>
<path d="M394.704 105.185H384.185V115.704H394.704V105.185Z" fill="#5FDBFD"/>
<path d="M394.704 94.6666H384.185V105.185H394.704V94.6666Z" fill="#5FDBFD"/>
<path d="M394.704 84.1481H384.185V94.6667H394.704V84.1481Z" fill="#9CE9FE"/>
<path d="M394.704 73.6296H384.185V84.1482H394.704V73.6296Z" fill="#9CE9FE"/>
<path d="M394.704 63.1111H384.185V73.6296H394.704V63.1111Z" fill="#CAF1FC"/>
<path d="M394.704 52.5926H384.185V63.1111H394.704V52.5926Z" fill="#9CE9FE"/>
<path d="M394.704 42.0741H384.185V52.5926H394.704V42.0741Z" fill="#CAF1FC"/>
<path d="M394.704 31.5555H384.185V42.0741H394.704V31.5555Z" fill="#CAF1FC"/>
<path d="M394.704 21.037H384.185V31.5556H394.704V21.037Z" fill="#CAF1FC"/>
<path d="M394.704 10.5185H384.185V21.037H394.704V10.5185Z" fill="white"/>
<path d="M384.185 126.222H373.667V136.741H384.185V126.222Z" fill="#5FDBFD"/>
<path d="M384.185 115.704H373.667V126.222H384.185V115.704Z" fill="#5FDBFD"/>
<path d="M384.185 105.185H373.667V115.704H384.185V105.185Z" fill="#5FDBFD"/>
<path d="M384.185 94.6666H373.667V105.185H384.185V94.6666Z" fill="#9CE9FE"/>
<path d="M384.185 84.1481H373.667V94.6667H384.185V84.1481Z" fill="#9CE9FE"/>
<path d="M384.185 73.6296H373.667V84.1482H384.185V73.6296Z" fill="#CAF1FC"/>
<path d="M384.185 63.1111H373.667V73.6296H384.185V63.1111Z" fill="#9CE9FE"/>
<path d="M384.185 52.5926H373.667V63.1111H384.185V52.5926Z" fill="#9CE9FE"/>
<path d="M384.185 42.0741H373.667V52.5926H384.185V42.0741Z" fill="#9CE9FE"/>
<path d="M384.185 31.5555H373.667V42.0741H384.185V31.5555Z" fill="#CAF1FC"/>
<path d="M384.185 21.037H373.667V31.5556H384.185V21.037Z" fill="#CAF1FC"/>
<path d="M384.185 10.5185H373.667V21.037H384.185V10.5185Z" fill="white"/>
<path d="M373.667 115.704H363.148V126.222H373.667V115.704Z" fill="#5FDBFD"/>
<path d="M373.667 105.185H363.148V115.704H373.667V105.185Z" fill="#9CE9FE"/>
<path d="M373.667 94.6666H363.148V105.185H373.667V94.6666Z" fill="#9CE9FE"/>
<path d="M373.667 84.1481H363.148V94.6667H373.667V84.1481Z" fill="#CAF1FC"/>
<path d="M373.667 73.6296H363.148V84.1482H373.667V73.6296Z" fill="#9CE9FE"/>
<path d="M373.667 63.1111H363.148V73.6296H373.667V63.1111Z" fill="#9CE9FE"/>
<path d="M373.667 52.5926H363.148V63.1111H373.667V52.5926Z" fill="#9CE9FE"/>
<path d="M373.667 42.0741H363.148V52.5926H373.667V42.0741Z" fill="#CAF1FC"/>
<path d="M373.667 31.5555H363.148V42.0741H373.667V31.5555Z" fill="#CAF1FC"/>
<path d="M373.667 21.037H363.148V31.5556H373.667V21.037Z" fill="white"/>
<path d="M363.148 115.704H352.63V126.222H363.148V115.704Z" fill="#9CE9FE"/>
<path d="M363.148 105.185H352.63V115.704H363.148V105.185Z" fill="#CAF1FC"/>
<path d="M363.148 94.6666H352.63V105.185H363.148V94.6666Z" fill="white"/>
<path d="M363.148 84.1481H352.63V94.6667H363.148V84.1481Z" fill="white"/>
<path d="M363.148 73.6296H352.63V84.1482H363.148V73.6296Z" fill="#9CE9FE"/>
<path d="M363.148 63.1111H352.63V73.6296H363.148V63.1111Z" fill="#9CE9FE"/>
<path d="M363.148 52.5926H352.63V63.1111H363.148V52.5926Z" fill="#CAF1FC"/>
<path d="M363.148 42.0741H352.63V52.5926H363.148V42.0741Z" fill="#CAF1FC"/>
<path d="M363.148 31.5555H352.63V42.0741H363.148V31.5555Z" fill="#CAF1FC"/>
<path d="M363.148 21.037H352.63V31.5556H363.148V21.037Z" fill="white"/>
<path d="M352.63 115.704H342.111V126.222H352.63V115.704Z" fill="#9CE9FE"/>
<path d="M352.63 105.185H342.111V115.704H352.63V105.185Z" fill="#CAF1FC"/>
<path d="M352.63 94.6666H342.111V105.185H352.63V94.6666Z" fill="#CAF1FC"/>
<path d="M352.63 84.1481H342.111V94.6667H352.63V84.1481Z" fill="white"/>
<path d="M352.63 73.6296H342.111V84.1482H352.63V73.6296Z" fill="white"/>
<path d="M352.63 63.1111H342.111V73.6296H352.63V63.1111Z" fill="#9CE9FE"/>
<path d="M352.63 52.5926H342.111V63.1111H352.63V52.5926Z" fill="#CAF1FC"/>
<path d="M352.63 42.0741H342.111V52.5926H352.63V42.0741Z" fill="white"/>
<path d="M352.63 31.5555H342.111V42.0741H352.63V31.5555Z" fill="white"/>
<path d="M342.111 115.704H331.593V126.222H342.111V115.704Z" fill="#5FDBFD"/>
<path d="M342.111 105.185H331.593V115.704H342.111V105.185Z" fill="#9CE9FE"/>
<path d="M342.111 94.6666H331.593V105.185H342.111V94.6666Z" fill="#CAF1FC"/>
<path d="M342.111 84.1481H331.593V94.6667H342.111V84.1481Z" fill="#CAF1FC"/>
<path d="M342.111 73.6296H331.593V84.1482H342.111V73.6296Z" fill="white"/>
<path d="M342.111 63.1111H331.593V73.6296H342.111V63.1111Z" fill="white"/>
<path d="M342.111 52.5926H331.593V63.1111H342.111V52.5926Z" fill="white"/>
<path d="M331.593 115.704H321.074V126.222H331.593V115.704Z" fill="#5FDBFD"/>
<path d="M331.593 105.185H321.074V115.704H331.593V105.185Z" fill="#9CE9FE"/>
<path d="M331.593 94.6666H321.074V105.185H331.593V94.6666Z" fill="#9CE9FE"/>
<path d="M331.593 84.1481H321.074V94.6667H331.593V84.1481Z" fill="#CAF1FC"/>
<path d="M331.593 73.6296H321.074V84.1482H331.593V73.6296Z" fill="#CAF1FC"/>
<path d="M331.593 63.1111H321.074V73.6296H331.593V63.1111Z" fill="white"/>
<path d="M321.074 115.704H310.556V126.222H321.074V115.704Z" fill="#5FDBFD"/>
<path d="M321.074 105.185H310.556V115.704H321.074V105.185Z" fill="#5FDBFD"/>
<path d="M321.074 94.6666H310.556V105.185H321.074V94.6666Z" fill="#9CE9FE"/>
<path d="M321.074 84.1481H310.556V94.6667H321.074V84.1481Z" fill="#CAF1FC"/>
<path d="M321.074 73.6296H310.556V84.1482H321.074V73.6296Z" fill="#CAF1FC"/>
<path d="M321.074 63.1111H310.556V73.6296H321.074V63.1111Z" fill="white"/>
<path d="M310.556 115.704H300.037V126.222H310.556V115.704Z" fill="#5FDBFD"/>
<path d="M310.556 105.185H300.037V115.704H310.556V105.185Z" fill="#5FDBFD"/>
<path d="M310.556 94.6666H300.037V105.185H310.556V94.6666Z" fill="#9CE9FE"/>
<path d="M310.556 84.1481H300.037V94.6667H310.556V84.1481Z" fill="#CAF1FC"/>
<path d="M310.556 73.6296H300.037V84.1482H310.556V73.6296Z" fill="white"/>
<path d="M310.556 63.1111H300.037V73.6296H310.556V63.1111Z" fill="white"/>
<path d="M300.037 105.185H289.519V115.704H300.037V105.185Z" fill="#5FDBFD"/>
<path d="M300.037 94.6666H289.519V105.185H300.037V94.6666Z" fill="#9CE9FE"/>
<path d="M300.037 84.1481H289.519V94.6667H300.037V84.1481Z" fill="#CAF1FC"/>
<path d="M300.037 73.6296H289.519V84.1482H300.037V73.6296Z" fill="white"/>
<path d="M289.519 94.6666H279V105.185H289.519V94.6666Z" fill="#CAF1FC"/>
<path d="M289.519 84.1481H279V94.6667H289.519V84.1481Z" fill="white"/>
</svg>
