<svg width="207" height="221" viewBox="0 0 207 221" fill="none" xmlns="http://www.w3.org/2000/svg">
<path d="M205.864 59.2233V67.685H197.406V59.2233H205.864Z" fill="#21201E"/>
<path d="M205.864 50.7773V59.239H197.406V50.7773H205.864Z" fill="#21201E"/>
<path d="M205.864 42.3151V50.7768H197.406V42.3151H205.864Z" fill="#21201E"/>
<path d="M197.416 67.6855V76.1471H188.957V67.6855H197.416Z" fill="#21201E"/>
<path d="M197.416 59.2233V67.685H188.957V59.2233H197.416Z" fill="#21201E"/>
<path d="M197.416 50.7773V59.239H188.957V50.7773H197.416Z" fill="#F9C62C"/>
<path d="M197.416 42.3151V50.7768H188.957V42.3151H197.416Z" fill="#21201E"/>
<path d="M197.416 33.8481V42.3098H188.957V33.8481H197.416Z" fill="#21201E"/>
<path d="M197.416 25.386V33.8476H188.957V25.386H197.416Z" fill="#21201E"/>
<path d="M188.946 110V118.462H180.488V110H188.946Z" fill="#21201E"/>
<path d="M188.946 101.538V110H180.488V101.538H188.946Z" fill="#21201E"/>
<path d="M188.946 93.0763V101.538H180.488V93.0763H188.946Z" fill="#21201E"/>
<path d="M188.946 84.6093V93.0709H180.488V84.6093H188.946Z" fill="#21201E"/>
<path d="M188.946 67.6855V76.1471H180.488V67.6855H188.946Z" fill="#21201E"/>
<path d="M188.946 59.2233V67.685H180.488V59.2233H188.946Z" fill="#F9C62C"/>
<path d="M188.946 50.7773V59.239H180.488V50.7773H188.946Z" fill="#F9C62C"/>
<path d="M188.946 42.3151V50.7768H180.488V42.3151H188.946Z" fill="#F9C62C"/>
<path d="M188.946 33.8481V42.3098H180.488V33.8481H188.946Z" fill="#F9C62C"/>
<path d="M188.946 25.386V33.8476H180.488V25.386H188.946Z" fill="#21201E"/>
<path d="M188.946 16.9189V25.3806H180.488V16.9189H188.946Z" fill="#21201E"/>
<path d="M188.946 8.45728V16.9189H180.488V8.45728H188.946Z" fill="#21201E"/>
<path d="M180.488 211.539V220H172.03V211.539H180.488Z" fill="#21201E"/>
<path d="M180.488 203.076V211.538H172.03V203.076H180.488Z" fill="#21201E"/>
<path d="M180.488 194.609V203.071H172.03V194.609H180.488Z" fill="#21201E"/>
<path d="M199.823 212V220.462H191.365V212H199.823Z" fill="#21201E"/>
<path d="M194.471 193V201.462H186.013V193H194.471Z" fill="#21201E"/>
<path d="M16.2996 192V200.462H7.84106V192H16.2996Z" fill="#21201E"/>
<path d="M8.63552 173V181.462H0.177002V173H8.63552Z" fill="#21201E"/>
<path d="M10.8308 212V220.462H2.37231V212H10.8308Z" fill="#21201E"/>
<path d="M206.823 177V185.462H198.365V177H206.823Z" fill="#21201E"/>
<path d="M180.488 186.153V194.614H172.03V186.153H180.488Z" fill="#21201E"/>
<path d="M180.488 177.685V186.147H172.03V177.685H180.488Z" fill="#21201E"/>
<path d="M180.488 169.223V177.685H172.03V169.223H180.488Z" fill="#21201E"/>
<path d="M180.488 160.767V169.228H172.03V160.767H180.488Z" fill="#21201E"/>
<path d="M180.488 152.31V160.772H172.03V152.31H180.488Z" fill="#21201E"/>
<path d="M180.488 143.842V152.304H172.03V143.842H180.488Z" fill="#21201E"/>
<path d="M180.488 135.386V143.848H172.03V135.386H180.488Z" fill="#21201E"/>
<path d="M180.488 126.924V135.386H172.03V126.924H180.488Z" fill="#21201E"/>
<path d="M180.488 118.456V126.918H172.03V118.456H180.488Z" fill="#21201E"/>
<path d="M180.488 110V118.462H172.03V110H180.488Z" fill="#00E3B5"/>
<path d="M180.488 101.538V110H172.03V101.538H180.488Z" fill="#00E3B5"/>
<path d="M180.488 93.0763V101.538H172.03V93.0763H180.488Z" fill="#00E3B5"/>
<path d="M180.488 84.6093V93.0709H172.03V84.6093H180.488Z" fill="#80EED3"/>
<path d="M180.488 76.1525V84.6141H172.03V76.1525H180.488Z" fill="#21201E"/>
<path d="M180.488 67.6855V76.1471H172.03V67.6855H180.488Z" fill="#21201E"/>
<path d="M180.488 59.2233V67.685H172.03V59.2233H180.488Z" fill="#F9C62C"/>
<path d="M180.488 50.7773V59.239H172.03V50.7773H180.488Z" fill="#F9C62C"/>
<path d="M180.488 42.3151V50.7768H172.03V42.3151H180.488Z" fill="#F9C62C"/>
<path d="M180.488 33.8481V42.3098H172.03V33.8481H180.488Z" fill="#F9C62C"/>
<path d="M180.488 25.386V33.8476H172.03V25.386H180.488Z" fill="#F9C62C"/>
<path d="M180.488 16.9189V25.3806H172.03V16.9189H180.488Z" fill="#F4EBA7"/>
<path d="M180.488 8.45728V16.9189H172.03V8.45728H180.488Z" fill="#21201E"/>
<path d="M172.04 211.539V220H163.581V211.539H172.04Z" fill="#21201E"/>
<path d="M172.04 203.076V211.538H163.581V203.076H172.04Z" fill="#80EED3"/>
<path d="M172.04 194.609V203.071H163.581V194.609H172.04Z" fill="#80EED3"/>
<path d="M172.04 186.153V194.614H163.581V186.153H172.04Z" fill="#80EED3"/>
<path d="M172.04 177.685V186.147H163.581V177.685H172.04Z" fill="#80EED3"/>
<path d="M172.04 169.223V177.685H163.581V169.223H172.04Z" fill="#80EED3"/>
<path d="M172.04 160.767V169.228H163.581V160.767H172.04Z" fill="#80EED3"/>
<path d="M172.04 152.31V160.772H163.581V152.31H172.04Z" fill="#80EED3"/>
<path d="M172.04 143.842V152.304H163.581V143.842H172.04Z" fill="#80EED3"/>
<path d="M172.04 135.386V143.848H163.581V135.386H172.04Z" fill="#00E3B5"/>
<path d="M172.04 126.924V135.386H163.581V126.924H172.04Z" fill="#00B590"/>
<path d="M172.04 118.456V126.918H163.581V118.456H172.04Z" fill="#21201E"/>
<path d="M172.04 110V118.462H163.581V110H172.04Z" fill="#00E3B5"/>
<path d="M172.04 101.538V110H163.581V101.538H172.04Z" fill="#00E3B5"/>
<path d="M172.04 93.0763V101.538H163.581V93.0763H172.04Z" fill="#00E3B5"/>
<path d="M172.04 84.6093V93.0709H163.581V84.6093H172.04Z" fill="#80EED3"/>
<path d="M172.04 76.1525V84.6141H163.581V76.1525H172.04Z" fill="#21201E"/>
<path d="M172.04 67.6855V76.1471H163.581V67.6855H172.04Z" fill="#F9C62C"/>
<path d="M172.04 59.2233V67.685H163.581V59.2233H172.04Z" fill="#F9C62C"/>
<path d="M172.04 50.7773V59.239H163.581V50.7773H172.04Z" fill="#F9C62C"/>
<path d="M172.04 42.3151V50.7768H163.581V42.3151H172.04Z" fill="#F9C62C"/>
<path d="M172.04 33.8481V42.3098H163.581V33.8481H172.04Z" fill="#F9C62C"/>
<path d="M172.04 25.386V33.8476H163.581V25.386H172.04Z" fill="#F9C62C"/>
<path d="M172.04 16.9189V25.3806H163.581V16.9189H172.04Z" fill="#F4EBA7"/>
<path d="M172.04 8.45728V16.9189H163.581V8.45728H172.04Z" fill="#21201E"/>
<path d="M172.04 0V8.46167H163.581V0H172.04Z" fill="#21201E"/>
<path d="M163.571 211.539V220H155.113V211.539H163.571Z" fill="#21201E"/>
<path d="M163.571 203.076V211.538H155.113V203.076H163.571Z" fill="#00E3B5"/>
<path d="M163.571 194.609V203.071H155.113V194.609H163.571Z" fill="#00E3B5"/>
<path d="M163.571 186.153V194.614H155.113V186.153H163.571Z" fill="#00E3B5"/>
<path d="M163.571 177.685V186.147H155.113V177.685H163.571Z" fill="#00E3B5"/>
<path d="M163.571 169.223V177.685H155.113V169.223H163.571Z" fill="#00E3B5"/>
<path d="M163.571 160.767V169.228H155.113V160.767H163.571Z" fill="#00E3B5"/>
<path d="M163.571 152.31V160.772H155.113V152.31H163.571Z" fill="#00E3B5"/>
<path d="M163.571 143.842V152.304H155.113V143.842H163.571Z" fill="#00E3B5"/>
<path d="M163.571 135.386V143.848H155.113V135.386H163.571Z" fill="#00E3B5"/>
<path d="M163.571 126.924V135.386H155.113V126.924H163.571Z" fill="#00B590"/>
<path d="M163.571 118.456V126.918H155.113V118.456H163.571Z" fill="#21201E"/>
<path d="M163.571 110V118.462H155.113V110H163.571Z" fill="#00E3B5"/>
<path d="M163.571 101.538V110H155.113V101.538H163.571Z" fill="#00E3B5"/>
<path d="M163.571 93.0763V101.538H155.113V93.0763H163.571Z" fill="#00E3B5"/>
<path d="M163.571 84.6093V93.0709H155.113V84.6093H163.571Z" fill="#80EED3"/>
<path d="M163.571 76.1525V84.6141H155.113V76.1525H163.571Z" fill="#21201E"/>
<path d="M163.571 67.6855V76.1471H155.113V67.6855H163.571Z" fill="#F9C62C"/>
<path d="M163.571 59.2233V67.685H155.113V59.2233H163.571Z" fill="#F9C62C"/>
<path d="M163.571 50.7773V59.239H155.113V50.7773H163.571Z" fill="#F9C62C"/>
<path d="M163.571 42.3151V50.7768H155.113V42.3151H163.571Z" fill="#F9C62C"/>
<path d="M163.571 33.8481V42.3098H155.113V33.8481H163.571Z" fill="#F9C62C"/>
<path d="M163.571 25.386V33.8476H155.113V25.386H163.571Z" fill="#F9C62C"/>
<path d="M163.571 16.9189V25.3806H155.113V16.9189H163.571Z" fill="#F4EBA7"/>
<path d="M163.571 8.45728V16.9189H155.113V8.45728H163.571Z" fill="#F4EBA7"/>
<path d="M163.571 0V8.46167H155.113V0H163.571Z" fill="#21201E"/>
<path d="M155.122 211.539V220H146.663V211.539H155.122Z" fill="#21201E"/>
<path d="M155.122 203.076V211.538H146.663V203.076H155.122Z" fill="#00E3B5"/>
<path d="M155.122 194.609V203.071H146.663V194.609H155.122Z" fill="#00E3B5"/>
<path d="M155.122 186.153V194.614H146.663V186.153H155.122Z" fill="#00E3B5"/>
<path d="M155.122 177.685V186.147H146.663V177.685H155.122Z" fill="#00E3B5"/>
<path d="M155.122 169.223V177.685H146.663V169.223H155.122Z" fill="#00E3B5"/>
<path d="M155.122 160.767V169.228H146.663V160.767H155.122Z" fill="#00E3B5"/>
<path d="M155.122 152.31V160.772H146.663V152.31H155.122Z" fill="#00E3B5"/>
<path d="M155.122 143.842V152.304H146.663V143.842H155.122Z" fill="#00E3B5"/>
<path d="M155.122 135.386V143.848H146.663V135.386H155.122Z" fill="#00E3B5"/>
<path d="M155.122 126.924V135.386H146.663V126.924H155.122Z" fill="#00B590"/>
<path d="M155.122 118.456V126.918H146.663V118.456H155.122Z" fill="#21201E"/>
<path d="M155.122 110V118.462H146.663V110H155.122Z" fill="#00E3B5"/>
<path d="M155.122 101.538V110H146.663V101.538H155.122Z" fill="#00E3B5"/>
<path d="M155.122 93.0763V101.538H146.663V93.0763H155.122Z" fill="#00E3B5"/>
<path d="M155.122 84.6093V93.0709H146.663V84.6093H155.122Z" fill="#80EED3"/>
<path d="M155.122 76.1525V84.6141H146.663V76.1525H155.122Z" fill="#21201E"/>
<path d="M155.122 67.6855V76.1471H146.663V67.6855H155.122Z" fill="#F9C62C"/>
<path d="M155.122 59.2233V67.685H146.663V59.2233H155.122Z" fill="#F9C62C"/>
<path d="M155.122 50.7773V59.239H146.663V50.7773H155.122Z" fill="#F9C62C"/>
<path d="M155.122 42.3151V50.7768H146.663V42.3151H155.122Z" fill="#F9C62C"/>
<path d="M155.122 33.8481V42.3098H146.663V33.8481H155.122Z" fill="#F9C62C"/>
<path d="M155.122 25.386V33.8476H146.663V25.386H155.122Z" fill="#F9C62C"/>
<path d="M155.122 16.9189V25.3806H146.663V16.9189H155.122Z" fill="#F4EBA7"/>
<path d="M155.122 8.45728V16.9189H146.663V8.45728H155.122Z" fill="#F4EBA7"/>
<path d="M155.122 0V8.46167H146.663V0H155.122Z" fill="#21201E"/>
<path d="M146.664 211.539V220H138.205V211.539H146.664Z" fill="#21201E"/>
<path d="M146.664 203.076V211.538H138.205V203.076H146.664Z" fill="#00E3B5"/>
<path d="M146.664 194.609V203.071H138.205V194.609H146.664Z" fill="#00E3B5"/>
<path d="M146.664 186.153V194.614H138.205V186.153H146.664Z" fill="#00E3B5"/>
<path d="M146.664 177.685V186.147H138.205V177.685H146.664Z" fill="#00E3B5"/>
<path d="M146.664 169.223V177.685H138.205V169.223H146.664Z" fill="#00E3B5"/>
<path d="M146.664 160.767V169.228H138.205V160.767H146.664Z" fill="#00E3B5"/>
<path d="M146.664 152.31V160.772H138.205V152.31H146.664Z" fill="#00E3B5"/>
<path d="M146.664 143.842V152.304H138.205V143.842H146.664Z" fill="#00E3B5"/>
<path d="M146.664 135.386V143.848H138.205V135.386H146.664Z" fill="#00E3B5"/>
<path d="M146.664 126.924V135.386H138.205V126.924H146.664Z" fill="#00B590"/>
<path d="M146.664 118.456V126.918H138.205V118.456H146.664Z" fill="#21201E"/>
<path d="M146.664 110V118.462H138.205V110H146.664Z" fill="#00E3B5"/>
<path d="M146.664 101.538V110H138.205V101.538H146.664Z" fill="#00E3B5"/>
<path d="M146.664 93.0763V101.538H138.205V93.0763H146.664Z" fill="#00E3B5"/>
<path d="M146.664 84.6093V93.0709H138.205V84.6093H146.664Z" fill="#80EED3"/>
<path d="M146.664 76.1525V84.6141H138.205V76.1525H146.664Z" fill="#21201E"/>
<path d="M146.664 67.6855V76.1471H138.205V67.6855H146.664Z" fill="#F9C62C"/>
<path d="M146.664 59.2233V67.685H138.205V59.2233H146.664Z" fill="#F9C62C"/>
<path d="M146.664 50.7773V59.239H138.205V50.7773H146.664Z" fill="#21201E"/>
<path d="M146.664 42.3151V50.7768H138.205V42.3151H146.664Z" fill="#F9C62C"/>
<path d="M146.664 33.8481V42.3098H138.205V33.8481H146.664Z" fill="#F4EBA7"/>
<path d="M146.664 25.386V33.8476H138.205V25.386H146.664Z" fill="#F4EBA7"/>
<path d="M146.664 16.9189V25.3806H138.205V16.9189H146.664Z" fill="#F4EBA7"/>
<path d="M146.664 8.45728V16.9189H138.205V8.45728H146.664Z" fill="#21201E"/>
<path d="M138.205 211.539V220H129.746V211.539H138.205Z" fill="#21201E"/>
<path d="M138.205 203.076V211.538H129.746V203.076H138.205Z" fill="#00E3B5"/>
<path d="M138.205 194.609V203.071H129.746V194.609H138.205Z" fill="#00E3B5"/>
<path d="M138.205 186.153V194.614H129.746V186.153H138.205Z" fill="#00E3B5"/>
<path d="M138.205 177.685V186.147H129.746V177.685H138.205Z" fill="#00E3B5"/>
<path d="M138.205 169.223V177.685H129.746V169.223H138.205Z" fill="#00E3B5"/>
<path d="M138.205 160.767V169.228H129.746V160.767H138.205Z" fill="#00E3B5"/>
<path d="M138.205 152.31V160.772H129.746V152.31H138.205Z" fill="#00E3B5"/>
<path d="M138.205 143.842V152.304H129.746V143.842H138.205Z" fill="#00E3B5"/>
<path d="M138.205 135.386V143.848H129.746V135.386H138.205Z" fill="#00E3B5"/>
<path d="M138.205 126.924V135.386H129.746V126.924H138.205Z" fill="#00B590"/>
<path d="M138.205 118.456V126.918H129.746V118.456H138.205Z" fill="#21201E"/>
<path d="M138.205 110V118.462H129.746V110H138.205Z" fill="#00E3B5"/>
<path d="M138.205 101.538V110H129.746V101.538H138.205Z" fill="#00E3B5"/>
<path d="M138.205 93.0763V101.538H129.746V93.0763H138.205Z" fill="#00E3B5"/>
<path d="M138.205 84.6093V93.0709H129.746V84.6093H138.205Z" fill="#80EED3"/>
<path d="M138.205 76.1525V84.6141H129.746V76.1525H138.205Z" fill="#21201E"/>
<path d="M138.205 67.6855V76.1471H129.746V67.6855H138.205Z" fill="#F9C62C"/>
<path d="M138.205 59.2233V67.685H129.746V59.2233H138.205Z" fill="#21201E"/>
<path d="M138.205 50.7773V59.239H129.746V50.7773H138.205Z" fill="#F9C62C"/>
<path d="M138.205 42.3151V50.7768H129.746V42.3151H138.205Z" fill="#F9C62C"/>
<path d="M138.205 33.8481V42.3098H129.746V33.8481H138.205Z" fill="#F4EBA7"/>
<path d="M138.205 25.386V33.8476H129.746V25.386H138.205Z" fill="#21201E"/>
<path d="M138.205 16.9189V25.3806H129.746V16.9189H138.205Z" fill="#21201E"/>
<path d="M138.205 8.45728V16.9189H129.746V8.45728H138.205Z" fill="#21201E"/>
<path d="M129.747 211.539V220H121.288V211.539H129.747Z" fill="#21201E"/>
<path d="M129.747 203.076V211.538H121.288V203.076H129.747Z" fill="#00B590"/>
<path d="M129.747 194.609V203.071H121.288V194.609H129.747Z" fill="#00B590"/>
<path d="M129.747 186.153V194.614H121.288V186.153H129.747Z" fill="#00B590"/>
<path d="M129.747 177.685V186.147H121.288V177.685H129.747Z" fill="#00B590"/>
<path d="M129.747 169.223V177.685H121.288V169.223H129.747Z" fill="#00B590"/>
<path d="M129.747 160.767V169.228H121.288V160.767H129.747Z" fill="#00B590"/>
<path d="M129.747 152.31V160.772H121.288V152.31H129.747Z" fill="#00B590"/>
<path d="M129.747 143.842V152.304H121.288V143.842H129.747Z" fill="#00B590"/>
<path d="M129.747 135.386V143.848H121.288V135.386H129.747Z" fill="#00B590"/>
<path d="M129.747 126.924V135.386H121.288V126.924H129.747Z" fill="#00B590"/>
<path d="M129.747 118.456V126.918H121.288V118.456H129.747Z" fill="#21201E"/>
<path d="M129.747 110V118.462H121.288V110H129.747Z" fill="#00B590"/>
<path d="M129.747 101.538V110H121.288V101.538H129.747Z" fill="#00B590"/>
<path d="M129.747 93.0763V101.538H121.288V93.0763H129.747Z" fill="#00B590"/>
<path d="M129.747 84.6093V93.0709H121.288V84.6093H129.747Z" fill="#80EED3"/>
<path d="M129.747 76.1525V84.6141H121.288V76.1525H129.747Z" fill="#21201E"/>
<path d="M129.747 67.6855V76.1471H121.288V67.6855H129.747Z" fill="#21201E"/>
<path d="M129.747 59.2233V67.685H121.288V59.2233H129.747Z" fill="#F9C62C"/>
<path d="M129.747 50.7773V59.239H121.288V50.7773H129.747Z" fill="#F9C62C"/>
<path d="M129.747 42.3151V50.7768H121.288V42.3151H129.747Z" fill="#21201E"/>
<path d="M129.747 33.8481V42.3098H121.288V33.8481H129.747Z" fill="#21201E"/>
<path d="M129.747 25.386V33.8476H121.288V25.386H129.747Z" fill="#21201E"/>
<path d="M121.287 211.539V220H112.828V211.539H121.287Z" fill="#21201E"/>
<path d="M121.287 203.076V211.538H112.828V203.076H121.287Z" fill="#21201E"/>
<path d="M121.287 194.609V203.071H112.828V194.609H121.287Z" fill="#21201E"/>
<path d="M121.287 186.153V194.614H112.828V186.153H121.287Z" fill="#21201E"/>
<path d="M121.287 177.685V186.147H112.828V177.685H121.287Z" fill="#21201E"/>
<path d="M121.287 169.223V177.685H112.828V169.223H121.287Z" fill="#21201E"/>
<path d="M121.287 160.767V169.228H112.828V160.767H121.287Z" fill="#21201E"/>
<path d="M121.287 152.31V160.772H112.828V152.31H121.287Z" fill="#21201E"/>
<path d="M121.287 143.842V152.304H112.828V143.842H121.287Z" fill="#21201E"/>
<path d="M121.287 135.386V143.848H112.828V135.386H121.287Z" fill="#21201E"/>
<path d="M121.287 126.924V135.386H112.828V126.924H121.287Z" fill="#21201E"/>
<path d="M121.287 118.456V126.918H112.828V118.456H121.287Z" fill="#21201E"/>
<path d="M121.287 110V118.462H112.828V110H121.287Z" fill="#21201E"/>
<path d="M121.287 101.538V110H112.828V101.538H121.287Z" fill="#21201E"/>
<path d="M121.287 93.0763V101.538H112.828V93.0763H121.287Z" fill="#21201E"/>
<path d="M121.287 84.6093V93.0709H112.828V84.6093H121.287Z" fill="#21201E"/>
<path d="M121.287 76.1525V84.6141H112.828V76.1525H121.287Z" fill="#21201E"/>
<path d="M121.287 67.6855V76.1471H112.828V67.6855H121.287Z" fill="#21201E"/>
<path d="M121.287 59.2233V67.685H112.828V59.2233H121.287Z" fill="#21201E"/>
<path d="M121.287 50.7773V59.239H112.828V50.7773H121.287Z" fill="#21201E"/>
<path d="M121.287 42.3151V50.7768H112.828V42.3151H121.287Z" fill="#21201E"/>
<path d="M112.818 211.539V220H104.36V211.539H112.818Z" fill="#21201E"/>
<path d="M112.818 203.076V211.538H104.36V203.076H112.818Z" fill="#F9C62C"/>
<path d="M112.818 194.609V203.071H104.36V194.609H112.818Z" fill="#F9C62C"/>
<path d="M112.818 186.153V194.614H104.36V186.153H112.818Z" fill="#F9C62C"/>
<path d="M112.818 177.685V186.147H104.36V177.685H112.818Z" fill="#F9C62C"/>
<path d="M112.818 169.223V177.685H104.36V169.223H112.818Z" fill="#F9C62C"/>
<path d="M112.818 160.767V169.228H104.36V160.767H112.818Z" fill="#F9C62C"/>
<path d="M112.818 152.31V160.772H104.36V152.31H112.818Z" fill="#F9C62C"/>
<path d="M112.818 143.842V152.304H104.36V143.842H112.818Z" fill="#F9C62C"/>
<path d="M112.818 135.386V143.848H104.36V135.386H112.818Z" fill="#F9C62C"/>
<path d="M112.818 126.924V135.386H104.36V126.924H112.818Z" fill="#F9C62C"/>
<path d="M112.818 118.456V126.918H104.36V118.456H112.818Z" fill="#21201E"/>
<path d="M112.818 110V118.462H104.36V110H112.818Z" fill="#F9C62C"/>
<path d="M112.818 101.538V110H104.36V101.538H112.818Z" fill="#F9C62C"/>
<path d="M112.818 93.0763V101.538H104.36V93.0763H112.818Z" fill="#F9C62C"/>
<path d="M112.818 84.6093V93.0709H104.36V84.6093H112.818Z" fill="#F4EBA7"/>
<path d="M112.818 76.1525V84.6141H104.36V76.1525H112.818Z" fill="#21201E"/>
<path d="M112.818 67.6855V76.1471H104.36V67.6855H112.818Z" fill="#F9C62C"/>
<path d="M112.818 59.2233V67.685H104.36V59.2233H112.818Z" fill="#F4EBA7"/>
<path d="M112.818 50.7773V59.239H104.36V50.7773H112.818Z" fill="#21201E"/>
<path d="M104.359 211.539V220H95.9006V211.539H104.359Z" fill="#21201E"/>
<path d="M104.359 203.076V211.538H95.9006V203.076H104.359Z" fill="#F9C62C"/>
<path d="M104.359 194.609V203.071H95.9006V194.609H104.359Z" fill="#F9C62C"/>
<path d="M104.359 186.153V194.614H95.9006V186.153H104.359Z" fill="#F9C62C"/>
<path d="M104.359 177.685V186.147H95.9006V177.685H104.359Z" fill="#F9C62C"/>
<path d="M104.359 169.223V177.685H95.9006V169.223H104.359Z" fill="#F9C62C"/>
<path d="M104.359 160.767V169.228H95.9006V160.767H104.359Z" fill="#F9C62C"/>
<path d="M104.359 152.31V160.772H95.9006V152.31H104.359Z" fill="#F9C62C"/>
<path d="M104.359 143.842V152.304H95.9006V143.842H104.359Z" fill="#F9C62C"/>
<path d="M104.359 135.386V143.848H95.9006V135.386H104.359Z" fill="#F9C62C"/>
<path d="M104.359 126.924V135.386H95.9006V126.924H104.359Z" fill="#F9C62C"/>
<path d="M104.359 118.456V126.918H95.9006V118.456H104.359Z" fill="#21201E"/>
<path d="M104.359 110V118.462H95.9006V110H104.359Z" fill="#F9C62C"/>
<path d="M104.359 101.538V110H95.9006V101.538H104.359Z" fill="#F9C62C"/>
<path d="M104.359 93.0763V101.538H95.9006V93.0763H104.359Z" fill="#F9C62C"/>
<path d="M104.359 84.6093V93.0709H95.9006V84.6093H104.359Z" fill="#F4EBA7"/>
<path d="M104.359 76.1525V84.6141H95.9006V76.1525H104.359Z" fill="#21201E"/>
<path d="M104.359 67.6855V76.1471H95.9006V67.6855H104.359Z" fill="#F9C62C"/>
<path d="M104.359 59.2233V67.685H95.9006V59.2233H104.359Z" fill="#F4EBA7"/>
<path d="M104.359 50.7773V59.239H95.9006V50.7773H104.359Z" fill="#21201E"/>
<path d="M95.9002 211.539V220H87.4417V211.539H95.9002Z" fill="#21201E"/>
<path d="M95.9002 203.076V211.538H87.4417V203.076H95.9002Z" fill="#F9C62C"/>
<path d="M95.9002 194.609V203.071H87.4417V194.609H95.9002Z" fill="#F9C62C"/>
<path d="M95.9002 186.153V194.614H87.4417V186.153H95.9002Z" fill="#F9C62C"/>
<path d="M95.9002 177.685V186.147H87.4417V177.685H95.9002Z" fill="#F9C62C"/>
<path d="M95.9002 169.223V177.685H87.4417V169.223H95.9002Z" fill="#F9C62C"/>
<path d="M95.9002 160.767V169.228H87.4417V160.767H95.9002Z" fill="#F9C62C"/>
<path d="M95.9002 152.31V160.772H87.4417V152.31H95.9002Z" fill="#F9C62C"/>
<path d="M95.9002 143.842V152.304H87.4417V143.842H95.9002Z" fill="#F9C62C"/>
<path d="M95.9002 135.386V143.848H87.4417V135.386H95.9002Z" fill="#F9C62C"/>
<path d="M95.9002 126.924V135.386H87.4417V126.924H95.9002Z" fill="#F9C62C"/>
<path d="M95.9002 118.456V126.918H87.4417V118.456H95.9002Z" fill="#21201E"/>
<path d="M95.9002 110V118.462H87.4417V110H95.9002Z" fill="#F9C62C"/>
<path d="M95.9002 101.538V110H87.4417V101.538H95.9002Z" fill="#F9C62C"/>
<path d="M95.9002 93.0763V101.538H87.4417V93.0763H95.9002Z" fill="#F9C62C"/>
<path d="M95.9002 84.6093V93.0709H87.4417V84.6093H95.9002Z" fill="#F4EBA7"/>
<path d="M95.9002 76.1525V84.6141H87.4417V76.1525H95.9002Z" fill="#21201E"/>
<path d="M95.9002 67.6855V76.1471H87.4417V67.6855H95.9002Z" fill="#F9C62C"/>
<path d="M95.9002 59.2233V67.685H87.4417V59.2233H95.9002Z" fill="#F9C62C"/>
<path d="M95.9002 50.7773V59.239H87.4417V50.7773H95.9002Z" fill="#21201E"/>
<path d="M87.4519 211.539V220H78.9934V211.539H87.4519Z" fill="#21201E"/>
<path d="M87.4519 203.076V211.538H78.9934V203.076H87.4519Z" fill="#21201E"/>
<path d="M87.4519 194.609V203.071H78.9934V194.609H87.4519Z" fill="#21201E"/>
<path d="M87.4519 186.153V194.614H78.9934V186.153H87.4519Z" fill="#21201E"/>
<path d="M87.4519 177.685V186.147H78.9934V177.685H87.4519Z" fill="#21201E"/>
<path d="M87.4519 169.223V177.685H78.9934V169.223H87.4519Z" fill="#21201E"/>
<path d="M87.4519 160.767V169.228H78.9934V160.767H87.4519Z" fill="#21201E"/>
<path d="M87.4519 152.31V160.772H78.9934V152.31H87.4519Z" fill="#21201E"/>
<path d="M87.4519 143.842V152.304H78.9934V143.842H87.4519Z" fill="#21201E"/>
<path d="M87.4519 135.386V143.848H78.9934V135.386H87.4519Z" fill="#21201E"/>
<path d="M87.4519 126.924V135.386H78.9934V126.924H87.4519Z" fill="#21201E"/>
<path d="M87.4519 118.456V126.918H78.9934V118.456H87.4519Z" fill="#21201E"/>
<path d="M87.4519 110V118.462H78.9934V110H87.4519Z" fill="#21201E"/>
<path d="M87.4519 101.538V110H78.9934V101.538H87.4519Z" fill="#21201E"/>
<path d="M87.4519 93.0763V101.538H78.9934V93.0763H87.4519Z" fill="#21201E"/>
<path d="M87.4519 84.6093V93.0709H78.9934V84.6093H87.4519Z" fill="#21201E"/>
<path d="M87.4519 76.1525V84.6141H78.9934V76.1525H87.4519Z" fill="#21201E"/>
<path d="M87.4519 67.6855V76.1471H78.9934V67.6855H87.4519Z" fill="#21201E"/>
<path d="M87.4519 59.2233V67.685H78.9934V59.2233H87.4519Z" fill="#21201E"/>
<path d="M87.4519 50.7773V59.239H78.9934V50.7773H87.4519Z" fill="#21201E"/>
<path d="M78.9939 211.539V220H70.5354V211.539H78.9939Z" fill="#21201E"/>
<path d="M78.9939 203.076V211.538H70.5354V203.076H78.9939Z" fill="#00B590"/>
<path d="M78.9939 194.609V203.071H70.5354V194.609H78.9939Z" fill="#00B590"/>
<path d="M78.9939 186.153V194.614H70.5354V186.153H78.9939Z" fill="#00B590"/>
<path d="M78.9939 177.685V186.147H70.5354V177.685H78.9939Z" fill="#00B590"/>
<path d="M78.9939 169.223V177.685H70.5354V169.223H78.9939Z" fill="#00B590"/>
<path d="M78.9939 160.767V169.228H70.5354V160.767H78.9939Z" fill="#00B590"/>
<path d="M78.9939 152.31V160.772H70.5354V152.31H78.9939Z" fill="#00B590"/>
<path d="M78.9939 143.842V152.304H70.5354V143.842H78.9939Z" fill="#00B590"/>
<path d="M78.9939 135.386V143.848H70.5354V135.386H78.9939Z" fill="#00B590"/>
<path d="M78.9939 126.924V135.386H70.5354V126.924H78.9939Z" fill="#00B590"/>
<path d="M78.9939 118.456V126.918H70.5354V118.456H78.9939Z" fill="#21201E"/>
<path d="M78.9939 110V118.462H70.5354V110H78.9939Z" fill="#00B590"/>
<path d="M78.9939 101.538V110H70.5354V101.538H78.9939Z" fill="#00B590"/>
<path d="M78.9939 93.0763V101.538H70.5354V93.0763H78.9939Z" fill="#00B590"/>
<path d="M78.9939 84.6093V93.0709H70.5354V84.6093H78.9939Z" fill="#80EED3"/>
<path d="M78.9939 76.1525V84.6141H70.5354V76.1525H78.9939Z" fill="#21201E"/>
<path d="M78.9939 67.6855V76.1471H70.5354V67.6855H78.9939Z" fill="#21201E"/>
<path d="M78.9939 59.2233V67.685H70.5354V59.2233H78.9939Z" fill="#21201E"/>
<path d="M78.9939 50.7773V59.239H70.5354V50.7773H78.9939Z" fill="#21201E"/>
<path d="M78.9939 42.3151V50.7768H70.5354V42.3151H78.9939Z" fill="#21201E"/>
<path d="M70.5339 211.539V220H62.0754V211.539H70.5339Z" fill="#21201E"/>
<path d="M70.5339 203.076V211.538H62.0754V203.076H70.5339Z" fill="#00E3B5"/>
<path d="M70.5339 194.609V203.071H62.0754V194.609H70.5339Z" fill="#00E3B5"/>
<path d="M70.5339 186.153V194.614H62.0754V186.153H70.5339Z" fill="#00E3B5"/>
<path d="M70.5339 177.685V186.147H62.0754V177.685H70.5339Z" fill="#00E3B5"/>
<path d="M70.5339 169.223V177.685H62.0754V169.223H70.5339Z" fill="#00E3B5"/>
<path d="M70.5339 160.767V169.228H62.0754V160.767H70.5339Z" fill="#00E3B5"/>
<path d="M70.5339 152.31V160.772H62.0754V152.31H70.5339Z" fill="#00E3B5"/>
<path d="M70.5339 143.842V152.304H62.0754V143.842H70.5339Z" fill="#00E3B5"/>
<path d="M70.5339 135.386V143.848H62.0754V135.386H70.5339Z" fill="#00E3B5"/>
<path d="M70.5339 126.924V135.386H62.0754V126.924H70.5339Z" fill="#00B590"/>
<path d="M70.5339 118.456V126.918H62.0754V118.456H70.5339Z" fill="#21201E"/>
<path d="M70.5339 110V118.462H62.0754V110H70.5339Z" fill="#00E3B5"/>
<path d="M70.5339 101.538V110H62.0754V101.538H70.5339Z" fill="#00E3B5"/>
<path d="M70.5339 93.0763V101.538H62.0754V93.0763H70.5339Z" fill="#00E3B5"/>
<path d="M70.5339 84.6093V93.0709H62.0754V84.6093H70.5339Z" fill="#80EED3"/>
<path d="M70.5339 76.1525V84.6141H62.0754V76.1525H70.5339Z" fill="#21201E"/>
<path d="M70.5339 67.6855V76.1471H62.0754V67.6855H70.5339Z" fill="#21201E"/>
<path d="M70.5339 59.2233V67.685H62.0754V59.2233H70.5339Z" fill="#F9C62C"/>
<path d="M70.5339 50.7773V59.239H62.0754V50.7773H70.5339Z" fill="#F9C62C"/>
<path d="M70.5339 42.3151V50.7768H62.0754V42.3151H70.5339Z" fill="#F4EBA7"/>
<path d="M70.5339 33.8481V42.3098H62.0754V33.8481H70.5339Z" fill="#21201E"/>
<path d="M70.5339 25.386V33.8476H62.0754V25.386H70.5339Z" fill="#21201E"/>
<path d="M62.0759 211.539V220H53.6174V211.539H62.0759Z" fill="#21201E"/>
<path d="M62.0759 203.076V211.538H53.6174V203.076H62.0759Z" fill="#00E3B5"/>
<path d="M62.0759 194.609V203.071H53.6174V194.609H62.0759Z" fill="#00E3B5"/>
<path d="M62.0759 186.153V194.614H53.6174V186.153H62.0759Z" fill="#00E3B5"/>
<path d="M62.0759 177.685V186.147H53.6174V177.685H62.0759Z" fill="#00E3B5"/>
<path d="M62.0759 169.223V177.685H53.6174V169.223H62.0759Z" fill="#00E3B5"/>
<path d="M62.0759 160.767V169.228H53.6174V160.767H62.0759Z" fill="#00E3B5"/>
<path d="M62.0759 152.31V160.772H53.6174V152.31H62.0759Z" fill="#00E3B5"/>
<path d="M62.0759 143.842V152.304H53.6174V143.842H62.0759Z" fill="#00E3B5"/>
<path d="M62.0759 135.386V143.848H53.6174V135.386H62.0759Z" fill="#00E3B5"/>
<path d="M62.0759 126.924V135.386H53.6174V126.924H62.0759Z" fill="#00B590"/>
<path d="M62.0759 118.456V126.918H53.6174V118.456H62.0759Z" fill="#21201E"/>
<path d="M62.0759 110V118.462H53.6174V110H62.0759Z" fill="#00E3B5"/>
<path d="M62.0759 101.538V110H53.6174V101.538H62.0759Z" fill="#00E3B5"/>
<path d="M62.0759 93.0763V101.538H53.6174V93.0763H62.0759Z" fill="#00E3B5"/>
<path d="M62.0759 84.6093V93.0709H53.6174V84.6093H62.0759Z" fill="#80EED3"/>
<path d="M62.0759 76.1525V84.6141H53.6174V76.1525H62.0759Z" fill="#21201E"/>
<path d="M62.0759 67.6855V76.1471H53.6174V67.6855H62.0759Z" fill="#F9C62C"/>
<path d="M62.0759 59.2233V67.685H53.6174V59.2233H62.0759Z" fill="#21201E"/>
<path d="M62.0759 50.7773V59.239H53.6174V50.7773H62.0759Z" fill="#F9C62C"/>
<path d="M62.0759 42.3151V50.7768H53.6174V42.3151H62.0759Z" fill="#F9C62C"/>
<path d="M62.0759 33.8481V42.3098H53.6174V33.8481H62.0759Z" fill="#F4EBA7"/>
<path d="M62.0759 25.386V33.8476H53.6174V25.386H62.0759Z" fill="#21201E"/>
<path d="M62.0759 16.9189V25.3806H53.6174V16.9189H62.0759Z" fill="#21201E"/>
<path d="M53.616 211.539V220H45.1575V211.539H53.616Z" fill="#21201E"/>
<path d="M53.616 203.076V211.538H45.1575V203.076H53.616Z" fill="#00E3B5"/>
<path d="M53.616 194.609V203.071H45.1575V194.609H53.616Z" fill="#00E3B5"/>
<path d="M53.616 186.153V194.614H45.1575V186.153H53.616Z" fill="#00E3B5"/>
<path d="M53.616 177.685V186.147H45.1575V177.685H53.616Z" fill="#00E3B5"/>
<path d="M53.616 169.223V177.685H45.1575V169.223H53.616Z" fill="#00E3B5"/>
<path d="M53.616 160.767V169.228H45.1575V160.767H53.616Z" fill="#00E3B5"/>
<path d="M53.616 152.31V160.772H45.1575V152.31H53.616Z" fill="#00E3B5"/>
<path d="M53.616 143.842V152.304H45.1575V143.842H53.616Z" fill="#00E3B5"/>
<path d="M53.616 135.386V143.848H45.1575V135.386H53.616Z" fill="#00E3B5"/>
<path d="M53.616 126.924V135.386H45.1575V126.924H53.616Z" fill="#00B590"/>
<path d="M53.616 118.456V126.918H45.1575V118.456H53.616Z" fill="#21201E"/>
<path d="M53.616 110V118.462H45.1575V110H53.616Z" fill="#00E3B5"/>
<path d="M53.616 101.538V110H45.1575V101.538H53.616Z" fill="#00E3B5"/>
<path d="M53.616 93.0763V101.538H45.1575V93.0763H53.616Z" fill="#00E3B5"/>
<path d="M53.616 84.6093V93.0709H45.1575V84.6093H53.616Z" fill="#80EED3"/>
<path d="M53.616 76.1525V84.6141H45.1575V76.1525H53.616Z" fill="#21201E"/>
<path d="M53.616 67.6855V76.1471H45.1575V67.6855H53.616Z" fill="#F9C62C"/>
<path d="M53.616 59.2233V67.685H45.1575V59.2233H53.616Z" fill="#F9C62C"/>
<path d="M53.616 50.7773V59.239H45.1575V50.7773H53.616Z" fill="#21201E"/>
<path d="M53.616 42.3151V50.7768H45.1575V42.3151H53.616Z" fill="#F9C62C"/>
<path d="M53.616 33.8481V42.3098H45.1575V33.8481H53.616Z" fill="#F4EBA7"/>
<path d="M53.616 25.386V33.8476H45.1575V25.386H53.616Z" fill="#F4EBA7"/>
<path d="M53.616 16.9189V25.3806H45.1575V16.9189H53.616Z" fill="#21201E"/>
<path d="M45.1472 211.539V220H36.6887V211.539H45.1472Z" fill="#21201E"/>
<path d="M45.1472 203.076V211.538H36.6887V203.076H45.1472Z" fill="#00E3B5"/>
<path d="M45.1472 194.609V203.071H36.6887V194.609H45.1472Z" fill="#00E3B5"/>
<path d="M45.1472 186.153V194.614H36.6887V186.153H45.1472Z" fill="#00E3B5"/>
<path d="M45.1472 177.685V186.147H36.6887V177.685H45.1472Z" fill="#00E3B5"/>
<path d="M45.1472 169.223V177.685H36.6887V169.223H45.1472Z" fill="#00E3B5"/>
<path d="M45.1472 160.767V169.228H36.6887V160.767H45.1472Z" fill="#00E3B5"/>
<path d="M45.1472 152.31V160.772H36.6887V152.31H45.1472Z" fill="#00E3B5"/>
<path d="M45.1472 143.842V152.304H36.6887V143.842H45.1472Z" fill="#00E3B5"/>
<path d="M45.1472 135.386V143.848H36.6887V135.386H45.1472Z" fill="#00E3B5"/>
<path d="M45.1472 126.924V135.386H36.6887V126.924H45.1472Z" fill="#00B590"/>
<path d="M45.1472 118.456V126.918H36.6887V118.456H45.1472Z" fill="#21201E"/>
<path d="M45.1472 110V118.462H36.6887V110H45.1472Z" fill="#00E3B5"/>
<path d="M45.1472 101.538V110H36.6887V101.538H45.1472Z" fill="#00E3B5"/>
<path d="M45.1472 93.0763V101.538H36.6887V93.0763H45.1472Z" fill="#00E3B5"/>
<path d="M45.1472 84.6093V93.0709H36.6887V84.6093H45.1472Z" fill="#80EED3"/>
<path d="M45.1472 76.1525V84.6141H36.6887V76.1525H45.1472Z" fill="#21201E"/>
<path d="M45.1472 67.6855V76.1471H36.6887V67.6855H45.1472Z" fill="#F9C62C"/>
<path d="M45.1472 59.2233V67.685H36.6887V59.2233H45.1472Z" fill="#F9C62C"/>
<path d="M45.1472 50.7773V59.239H36.6887V50.7773H45.1472Z" fill="#F9C62C"/>
<path d="M45.1472 42.3151V50.7768H36.6887V42.3151H45.1472Z" fill="#F9C62C"/>
<path d="M45.1472 33.8481V42.3098H36.6887V33.8481H45.1472Z" fill="#F9C62C"/>
<path d="M45.1472 25.386V33.8476H36.6887V25.386H45.1472Z" fill="#F4EBA7"/>
<path d="M45.1472 16.9189V25.3806H36.6887V16.9189H45.1472Z" fill="#21201E"/>
<path d="M36.699 211.539V220H28.2405V211.539H36.699Z" fill="#21201E"/>
<path d="M36.699 203.076V211.538H28.2405V203.076H36.699Z" fill="#00E3B5"/>
<path d="M36.699 194.609V203.071H28.2405V194.609H36.699Z" fill="#00E3B5"/>
<path d="M36.699 186.153V194.614H28.2405V186.153H36.699Z" fill="#00E3B5"/>
<path d="M36.699 177.685V186.147H28.2405V177.685H36.699Z" fill="#00E3B5"/>
<path d="M36.699 169.223V177.685H28.2405V169.223H36.699Z" fill="#00E3B5"/>
<path d="M36.699 160.767V169.228H28.2405V160.767H36.699Z" fill="#00E3B5"/>
<path d="M36.699 152.31V160.772H28.2405V152.31H36.699Z" fill="#00E3B5"/>
<path d="M36.699 143.842V152.304H28.2405V143.842H36.699Z" fill="#00E3B5"/>
<path d="M36.699 135.386V143.848H28.2405V135.386H36.699Z" fill="#00E3B5"/>
<path d="M36.699 126.924V135.386H28.2405V126.924H36.699Z" fill="#00B590"/>
<path d="M36.699 118.456V126.918H28.2405V118.456H36.699Z" fill="#21201E"/>
<path d="M36.699 110V118.462H28.2405V110H36.699Z" fill="#00E3B5"/>
<path d="M36.699 101.538V110H28.2405V101.538H36.699Z" fill="#00E3B5"/>
<path d="M36.699 93.0763V101.538H28.2405V93.0763H36.699Z" fill="#00E3B5"/>
<path d="M36.699 84.6093V93.0709H28.2405V84.6093H36.699Z" fill="#80EED3"/>
<path d="M36.699 76.1525V84.6141H28.2405V76.1525H36.699Z" fill="#21201E"/>
<path d="M36.699 67.6855V76.1471H28.2405V67.6855H36.699Z" fill="#F9C62C"/>
<path d="M36.699 59.2233V67.685H28.2405V59.2233H36.699Z" fill="#F9C62C"/>
<path d="M36.699 50.7773V59.239H28.2405V50.7773H36.699Z" fill="#F9C62C"/>
<path d="M36.699 42.3151V50.7768H28.2405V42.3151H36.699Z" fill="#F9C62C"/>
<path d="M36.699 33.8481V42.3098H28.2405V33.8481H36.699Z" fill="#F9C62C"/>
<path d="M36.699 25.386V33.8476H28.2405V25.386H36.699Z" fill="#F4EBA7"/>
<path d="M36.699 16.9189V25.3806H28.2405V16.9189H36.699Z" fill="#21201E"/>
<path d="M28.2293 211.539V220H19.7708V211.539H28.2293Z" fill="#21201E"/>
<path d="M28.2293 203.076V211.538H19.7708V203.076H28.2293Z" fill="#21201E"/>
<path d="M28.2293 194.609V203.071H19.7708V194.609H28.2293Z" fill="#21201E"/>
<path d="M28.2293 186.153V194.614H19.7708V186.153H28.2293Z" fill="#21201E"/>
<path d="M28.2293 177.685V186.147H19.7708V177.685H28.2293Z" fill="#21201E"/>
<path d="M28.2293 169.223V177.685H19.7708V169.223H28.2293Z" fill="#21201E"/>
<path d="M28.2293 160.767V169.228H19.7708V160.767H28.2293Z" fill="#21201E"/>
<path d="M28.2293 152.31V160.772H19.7708V152.31H28.2293Z" fill="#21201E"/>
<path d="M28.2293 143.842V152.304H19.7708V143.842H28.2293Z" fill="#21201E"/>
<path d="M28.2293 135.386V143.848H19.7708V135.386H28.2293Z" fill="#21201E"/>
<path d="M28.2293 126.924V135.386H19.7708V126.924H28.2293Z" fill="#21201E"/>
<path d="M28.2293 118.456V126.918H19.7708V118.456H28.2293Z" fill="#21201E"/>
<path d="M28.2293 110V118.462H19.7708V110H28.2293Z" fill="#00E3B5"/>
<path d="M28.2293 101.538V110H19.7708V101.538H28.2293Z" fill="#00E3B5"/>
<path d="M28.2293 93.0763V101.538H19.7708V93.0763H28.2293Z" fill="#00E3B5"/>
<path d="M28.2293 84.6093V93.0709H19.7708V84.6093H28.2293Z" fill="#80EED3"/>
<path d="M28.2293 76.1525V84.6141H19.7708V76.1525H28.2293Z" fill="#21201E"/>
<path d="M28.2293 67.6855V76.1471H19.7708V67.6855H28.2293Z" fill="#21201E"/>
<path d="M28.2293 59.2233V67.685H19.7708V59.2233H28.2293Z" fill="#F9C62C"/>
<path d="M28.2293 50.7773V59.239H19.7708V50.7773H28.2293Z" fill="#F9C62C"/>
<path d="M28.2293 42.3151V50.7768H19.7708V42.3151H28.2293Z" fill="#F9C62C"/>
<path d="M28.2293 33.8481V42.3098H19.7708V33.8481H28.2293Z" fill="#F9C62C"/>
<path d="M28.2293 25.386V33.8476H19.7708V25.386H28.2293Z" fill="#F4EBA7"/>
<path d="M28.2293 16.9189V25.3806H19.7708V16.9189H28.2293Z" fill="#21201E"/>
<path d="M19.781 110V118.462H11.3225V110H19.781Z" fill="#21201E"/>
<path d="M19.781 101.538V110H11.3225V101.538H19.781Z" fill="#21201E"/>
<path d="M19.781 93.0763V101.538H11.3225V93.0763H19.781Z" fill="#21201E"/>
<path d="M19.781 84.6093V93.0709H11.3225V84.6093H19.781Z" fill="#21201E"/>
<path d="M19.781 67.6855V76.1471H11.3225V67.6855H19.781Z" fill="#21201E"/>
<path d="M19.781 59.2233V67.685H11.3225V59.2233H19.781Z" fill="#F9C62C"/>
<path d="M19.781 50.7773V59.239H11.3225V50.7773H19.781Z" fill="#F9C62C"/>
<path d="M19.781 42.3151V50.7768H11.3225V42.3151H19.781Z" fill="#F9C62C"/>
<path d="M19.781 33.8481V42.3098H11.3225V33.8481H19.781Z" fill="#21201E"/>
<path d="M19.781 25.386V33.8476H11.3225V25.386H19.781Z" fill="#21201E"/>
<path d="M11.323 67.6855V76.1471H2.8645V67.6855H11.323Z" fill="#21201E"/>
<path d="M11.323 59.2233V67.685H2.8645V59.2233H11.323Z" fill="#21201E"/>
<path d="M11.323 50.7773V59.239H2.8645V50.7773H11.323Z" fill="#21201E"/>
<path d="M11.323 42.3151V50.7768H2.8645V42.3151H11.323Z" fill="#21201E"/>
<path d="M11.323 33.8481V42.3098H2.8645V33.8481H11.323Z" fill="#21201E"/>
</svg>
